<?xml version="1.0" encoding="UTF-8"?>
<svg version="1.1" xmlns="http://www.w3.org/2000/svg" width="225" height="225">
<path d="M0 0 C74.25 0 148.5 0 225 0 C225 74.25 225 148.5 225 225 C150.75 225 76.5 225 0 225 C0 150.75 0 76.5 0 0 Z " fill="#2A2A2C" transform="translate(0,0)"/>
<path d="M0 0 C13.2 0 26.4 0 40 0 C40 74.25 40 148.5 40 225 C26.8 225 13.6 225 0 225 C0 150.75 0 76.5 0 0 Z " fill="#FDFDFD" transform="translate(0,0)"/>
<path d="M0 0 C12.87 0 25.74 0 39 0 C39 74.25 39 148.5 39 225 C26.13 225 13.26 225 0 225 C0 150.75 0 76.5 0 0 Z " fill="#FEFEFE" transform="translate(186,0)"/>
<path d="M0 0 C2.54499289 2.36761459 4.42525909 4.94082278 6.375 7.8125 C9.07657683 11.73007319 11.88121872 15.4086761 15 19 C14.59007812 19.74765625 14.18015625 20.4953125 13.7578125 21.265625 C13.21898437 22.25046875 12.68015625 23.2353125 12.125 24.25 C11.59132812 25.22453125 11.05765625 26.1990625 10.5078125 27.203125 C9.29580534 29.45130408 8.12452433 31.7072805 7 34 C9.475 33.505 9.475 33.505 12 33 C12.38218767 34.65614657 12.71395102 36.32457024 13 38 C12.67 38.33 12.34 38.66 12 39 C18.7582496 41.25274987 25.33585897 40.09071091 32 38 C34.5 37.5 34.5 37.5 37 38 C40.30588307 40.34796924 43.13950724 43.13950724 46 46 C38.88610478 52.70387244 38.88610478 52.70387244 34 53 C33.5875 52.360625 33.175 51.72125 32.75 51.0625 C30.68951985 48.63407697 30.07257116 48.50259596 27 48 C19.95786412 47.70836465 12.938157 47.67844629 6 49 C6 49.66 6 50.32 6 51 C6.94875 51.144375 7.8975 51.28875 8.875 51.4375 C12 52 12 52 14 53 C13.67 54.65 13.34 56.3 13 58 C12.01 58.33 11.02 58.66 10 59 C9.505 57.02 9.505 57.02 9 55 C8.34 55 7.68 55 7 55 C7.185625 55.556875 7.37125 56.11375 7.5625 56.6875 C8 59 8 59 7.546875 61.078125 C5.13261821 73.97715412 7.20529917 87.13350174 10.125 99.7421875 C12.00838019 108.41048042 12.00838019 108.41048042 9.28515625 112.703125 C8.18494141 113.96382812 8.18494141 113.96382812 7.0625 115.25 C4.23182958 118.42618548 4.23182958 118.42618548 2 122 C1.34 122 0.68 122 0 122 C-0.06058594 120.78441406 -0.12117188 119.56882812 -0.18359375 118.31640625 C-0.26798332 116.73175772 -0.3526321 115.14712298 -0.4375 113.5625 C-0.47681641 112.76005859 -0.51613281 111.95761719 -0.55664062 111.13085938 C-0.4054296 107.24760439 -0.4054296 107.24760439 -2 104 C-2.07645794 101.14811889 -2.09061718 98.32018729 -2.0625 95.46875 C-2.05871338 94.60366821 -2.05492676 93.73858643 -2.05102539 92.84729004 C-2.03466988 89.13609049 -2.00680862 85.42499983 -1.97949219 81.71386719 C-1.96124908 79.00716678 -1.94924397 76.30048524 -1.9375 73.59375 C-1.92920166 72.76838745 -1.92090332 71.9430249 -1.91235352 71.09265137 C-1.62302517 61.79054258 -1.62302517 61.79054258 -4 53 C-5.11375 53.66 -6.2275 54.32 -7.375 55 C-10.75 57 -10.75 57 -13 57 C-13 55.68 -13 54.36 -13 53 C-10.09399739 51.74335022 -8.20395416 51 -5 51 C-5 50.34 -5 49.68 -5 49 C-10.64347086 48.08877472 -16.22997887 47.70225954 -21.9375 47.4375 C-23.24944336 47.37272461 -23.24944336 47.37272461 -24.58789062 47.30664062 C-26.72511995 47.20153099 -28.86254238 47.10036015 -31 47 C-30.979375 46.236875 -30.95875 45.47375 -30.9375 44.6875 C-30.87057159 41.89814214 -30.87057159 41.89814214 -32 39 C-31.21625 39.165 -30.4325 39.33 -29.625 39.5 C-23.30575336 40.37162023 -16.80566497 41.09635465 -11 38 C-11.66 37.67 -12.32 37.34 -13 37 C-12.1875 35.0625 -12.1875 35.0625 -11 33 C-9.515 32.505 -9.515 32.505 -8 32 C-5 35.75 -5 35.75 -5 38 C-4.34 38 -3.68 38 -3 38 C-1.85922343 34.57767028 -1.90184883 31.91326783 -1.9375 28.3125 C-1.94652344 27.13300781 -1.95554687 25.95351562 -1.96484375 24.73828125 C-1.97644531 23.83464844 -1.98804687 22.93101563 -2 22 C-2.92232422 21.90912109 -2.92232422 21.90912109 -3.86328125 21.81640625 C-4.67152344 21.73261719 -5.47976562 21.64882812 -6.3125 21.5625 C-7.11300781 21.48128906 -7.91351563 21.40007812 -8.73828125 21.31640625 C-11 21 -11 21 -14 20 C-14 19.34 -14 18.68 -14 18 C-13.34 18 -12.68 18 -12 18 C-11.74089844 17.43152344 -11.48179688 16.86304687 -11.21484375 16.27734375 C-9.8874939 13.78909628 -8.33118581 11.75719186 -6.5625 9.5625 C-4.12362586 6.4834214 -1.89415643 3.45404997 0 0 Z " fill="#E1B964" transform="translate(112,52)"/>
<path d="M0 0 C2.54499289 2.36761459 4.42525909 4.94082278 6.375 7.8125 C9.07657683 11.73007319 11.88121872 15.4086761 15 19 C10.87477326 21.57826671 8.45556967 21.31805379 3 22 C2.67 27.94 2.34 33.88 2 40 C0.35 40.66 -1.3 41.32 -3 42 C-3.16681109 44.91652174 -3.16681109 44.91652174 -3 48 C-0.8614515 50.1385485 0.13275314 50.42655063 3 51 C3.0758691 58.51132765 3.12852324 66.02255704 3.16479492 73.53417969 C3.1799107 76.09118339 3.20040366 78.64816106 3.22631836 81.20507812 C3.26257862 84.87376317 3.27969836 88.5421064 3.29296875 92.2109375 C3.30845261 93.35992523 3.32393646 94.50891296 3.33988953 95.69271851 C3.34011612 96.7536673 3.34034271 97.81461609 3.34057617 98.90771484 C3.34723801 99.84481293 3.35389984 100.78191101 3.36076355 101.74740601 C3.24171158 102.49076202 3.12265961 103.23411804 3 104 C2.01 104.66 1.02 105.32 0 106 C-2 104 -2 104 -2.21118164 100.24389648 C-2.2040691 98.61955543 -2.1862927 96.99524009 -2.16015625 95.37109375 C-2.15495468 94.50742691 -2.14975311 93.64376007 -2.14439392 92.75392151 C-2.12654553 89.98161218 -2.09542475 87.20966817 -2.0625 84.4375 C-2.03474135 81.69035908 -2.00997733 78.94327847 -1.99131775 76.19606018 C-1.97922044 74.48632434 -1.9617806 72.77661465 -1.93800354 71.06700134 C-1.62440847 61.77885756 -1.62440847 61.77885756 -4 53 C-5.11375 53.66 -6.2275 54.32 -7.375 55 C-10.75 57 -10.75 57 -13 57 C-13 55.68 -13 54.36 -13 53 C-10.09399739 51.74335022 -8.20395416 51 -5 51 C-5 50.34 -5 49.68 -5 49 C-10.64347086 48.08877472 -16.22997887 47.70225954 -21.9375 47.4375 C-23.24944336 47.37272461 -23.24944336 47.37272461 -24.58789062 47.30664062 C-26.72511995 47.20153099 -28.86254238 47.10036015 -31 47 C-30.979375 46.236875 -30.95875 45.47375 -30.9375 44.6875 C-30.87057159 41.89814214 -30.87057159 41.89814214 -32 39 C-31.21625 39.165 -30.4325 39.33 -29.625 39.5 C-23.30575336 40.37162023 -16.80566497 41.09635465 -11 38 C-11.66 37.67 -12.32 37.34 -13 37 C-12.1875 35.0625 -12.1875 35.0625 -11 33 C-9.515 32.505 -9.515 32.505 -8 32 C-5 35.75 -5 35.75 -5 38 C-4.34 38 -3.68 38 -3 38 C-1.85922343 34.57767028 -1.90184883 31.91326783 -1.9375 28.3125 C-1.94652344 27.13300781 -1.95554687 25.95351562 -1.96484375 24.73828125 C-1.97644531 23.83464844 -1.98804687 22.93101563 -2 22 C-2.92232422 21.90912109 -2.92232422 21.90912109 -3.86328125 21.81640625 C-4.67152344 21.73261719 -5.47976562 21.64882812 -6.3125 21.5625 C-7.11300781 21.48128906 -7.91351563 21.40007812 -8.73828125 21.31640625 C-11 21 -11 21 -14 20 C-14 19.34 -14 18.68 -14 18 C-13.34 18 -12.68 18 -12 18 C-11.74089844 17.43152344 -11.48179688 16.86304687 -11.21484375 16.27734375 C-9.8874939 13.78909628 -8.33118581 11.75719186 -6.5625 9.5625 C-4.12362586 6.4834214 -1.89415643 3.45404997 0 0 Z " fill="#F2E6B5" transform="translate(112,52)"/>
<path d="M0 0 C1.25296875 0.25136719 1.25296875 0.25136719 2.53125 0.5078125 C7.48998136 1.21141627 12.34895394 0.91477192 17.34375 0.7421875 C21.33727365 1.02378212 23.64428512 1.85094634 27 4 C28.01622658 5.99180409 29.01712992 7.99152635 30 10 C32.52608866 11.20762189 32.52608866 11.20762189 35 12 C35.0758691 19.51132765 35.12852324 27.02255704 35.16479492 34.53417969 C35.1799107 37.09118339 35.20040366 39.64816106 35.22631836 42.20507812 C35.26257862 45.87376317 35.27969836 49.5421064 35.29296875 53.2109375 C35.30845261 54.35992523 35.32393646 55.50891296 35.33988953 56.69271851 C35.34011612 57.7536673 35.34034271 58.81461609 35.34057617 59.90771484 C35.34723801 60.84481293 35.35389984 61.78191101 35.36076355 62.74740601 C35.24171158 63.49076202 35.12265961 64.23411804 35 65 C34.01 65.66 33.02 66.32 32 67 C30 65 30 65 29.78881836 61.24389648 C29.7959309 59.61955543 29.8137073 57.99524009 29.83984375 56.37109375 C29.84504532 55.50742691 29.85024689 54.64376007 29.85560608 53.75392151 C29.87345447 50.98161218 29.90457525 48.20966817 29.9375 45.4375 C29.96525865 42.69035908 29.99002267 39.94327847 30.00868225 37.19606018 C30.02077956 35.48632434 30.0382194 33.77661465 30.06199646 32.06700134 C30.37559153 22.77885756 30.37559153 22.77885756 28 14 C26.88625 14.66 25.7725 15.32 24.625 16 C21.25 18 21.25 18 19 18 C19 16.68 19 15.36 19 14 C21.90600261 12.74335022 23.79604584 12 27 12 C27 11.34 27 10.68 27 10 C21.35652914 9.08877472 15.77002113 8.70225954 10.0625 8.4375 C8.75055664 8.37272461 8.75055664 8.37272461 7.41210938 8.30664062 C5.27488005 8.20153099 3.13745762 8.10036015 1 8 C1.020625 7.236875 1.04125 6.47375 1.0625 5.6875 C1.12942841 2.89814214 1.12942841 2.89814214 0 0 Z " fill="#F3EAB3" transform="translate(80,91)"/>
<path d="M0 0 C1.32 0.33 2.64 0.66 4 1 C3.67 2.65 3.34 4.3 3 6 C9.7582496 8.25274987 16.33585897 7.09071091 23 5 C25.5 4.5 25.5 4.5 28 5 C31.30588307 7.34796924 34.13950724 10.13950724 37 13 C29.88610478 19.70387244 29.88610478 19.70387244 25 20 C24.5875 19.360625 24.175 18.72125 23.75 18.0625 C21.69061498 15.63536766 21.0703067 15.5030739 18 15 C10.6741399 14.69325216 3.21578345 14.5851405 -4 16 C-4.33 16.66 -4.66 17.32 -5 18 C-4.979375 16.9275 -4.95875 15.855 -4.9375 14.75 C-4.80267074 11.23870756 -4.80267074 11.23870756 -5.6875 9 C-6 7 -6 7 -4.78515625 5.078125 C-4.21667969 4.47484375 -3.64820312 3.8715625 -3.0625 3.25 C-2.49660156 2.63640625 -1.93070312 2.0228125 -1.34765625 1.390625 C-0.90292969 0.93171875 -0.45820312 0.4728125 0 0 Z " fill="#F4E8B3" transform="translate(121,85)"/>
<path d="M0 0 C0.66 0.66 1.32 1.32 2 2 C1.34 2 0.68 2 0 2 C0.185625 2.721875 0.37125 3.44375 0.5625 4.1875 C1.01995307 7.12826973 0.73516357 9.14103058 0 12 C-0.33 12 -0.66 12 -1 12 C-1.33 15.63 -1.66 19.26 -2 23 C-3.32 23 -4.64 23 -6 23 C-7.32229189 20.35541621 -7.09677194 18.32238699 -7.0625 15.375 C-7.05347656 14.37210938 -7.04445312 13.36921875 -7.03515625 12.3359375 C-7.02355469 11.56507812 -7.01195312 10.79421875 -7 10 C-7.66 10 -8.32 10 -9 10 C-8.67 14.29 -8.34 18.58 -8 23 C-9.32 23.33 -10.64 23.66 -12 24 C-12.66 23.34 -13.32 22.68 -14 22 C-14.763125 22.350625 -15.52625 22.70125 -16.3125 23.0625 C-19 24 -19 24 -22 23 C-22.99 23 -23.98 23 -25 23 C-25.07347656 21.73542969 -25.07347656 21.73542969 -25.1484375 20.4453125 C-25.22320312 19.34960938 -25.29796875 18.25390625 -25.375 17.125 C-25.44460937 16.03445312 -25.51421875 14.94390625 -25.5859375 13.8203125 C-25.73253491 10.86953526 -25.73253491 10.86953526 -28 9 C-25.35261084 7.5393715 -24.10551666 7 -21 7 C-19.45699404 6.86909516 -17.9153719 6.72142726 -16.375 6.5625 C-15.06015625 6.42714844 -15.06015625 6.42714844 -13.71875 6.2890625 C-9.81082612 5.87356485 -5.90514096 5.44090301 -2 5 C-1.34 3.35 -0.68 1.7 0 0 Z " fill="#502121" transform="translate(157,11)"/>
<path d="M0 0 C2.375 0.8125 2.375 0.8125 3.375 2.8125 C4.138125 2.4825 4.90125 2.1525 5.6875 1.8125 C8.375 0.8125 8.375 0.8125 11.375 0.8125 C13.125 3.125 13.125 3.125 14.375 5.8125 C14.045 6.8025 13.715 7.7925 13.375 8.8125 C10.49062221 7.51950306 8.50280579 6.15308637 6.375 3.8125 C6.705 6.1225 7.035 8.4325 7.375 10.8125 C8.365 10.4825 9.355 10.1525 10.375 9.8125 C13.97957293 11.77863069 15.21214102 13.9363034 16.375 17.8125 C16.375 18.8025 16.375 19.7925 16.375 20.8125 C17.035 20.8125 17.695 20.8125 18.375 20.8125 C18.49875 20.090625 18.6225 19.36875 18.75 18.625 C19.3654931 15.85528106 20.25944374 13.4154646 21.375 10.8125 C23.94187367 14.6628105 23.20788724 16.39819763 22.375 20.8125 C23.035 21.1425 23.695 21.4725 24.375 21.8125 C20.90130975 23.79746586 18.3093963 24.34006263 14.3125 23.25 C11.40471852 21.09261374 10.74802489 18.09582038 9.375 14.8125 C8.385 14.4825 7.395 14.1525 6.375 13.8125 C6.375 15.7925 6.375 17.7725 6.375 19.8125 C7.695 20.4725 9.015 21.1325 10.375 21.8125 C8.375 23.8125 8.375 23.8125 5.1171875 24.0078125 C3.84101562 23.98460938 2.56484375 23.96140625 1.25 23.9375 C-0.67199219 23.91042969 -0.67199219 23.91042969 -2.6328125 23.8828125 C-4.11394531 23.84800781 -4.11394531 23.84800781 -5.625 23.8125 C-3.875 19.9375 -3.875 19.9375 -1.625 18.8125 C-2.18228913 15.46876525 -2.97673889 12.77937001 -4.625 9.8125 C-2.645 10.3075 -2.645 10.3075 -0.625 10.8125 C-0.955 9.8225 -1.285 8.8325 -1.625 7.8125 C-1.1875 5.125 -1.1875 5.125 -0.625 2.8125 C-2.275 2.8125 -3.925 2.8125 -5.625 2.8125 C-3.74442913 0.33806465 -3.19312156 -0.22808011 0 0 Z " fill="#D80717" transform="translate(61.625,11.1875)"/>
<path d="M0 0 C0.103125 0.639375 0.20625 1.27875 0.3125 1.9375 C0.539375 2.618125 0.76625 3.29875 1 4 C3.94729537 5.15811388 3.94729537 5.15811388 7 5 C8.32 5.66 9.64 6.32 11 7 C11 11.29 11 15.58 11 20 C7.23312136 21.88343932 5.97041037 22.22057835 2 22 C1.67 23.32 1.34 24.64 1 26 C1 25.01 1 24.02 1 23 C0.030625 23.020625 -0.93875 23.04125 -1.9375 23.0625 C-5 23 -5 23 -6 22 C-6.07325168 19.13732433 -6.09238205 16.299281 -6.0625 13.4375 C-6.05798828 12.63119141 -6.05347656 11.82488281 -6.04882812 10.99414062 C-6.03700518 8.99606244 -6.01906914 6.99802217 -6 5 C-4.02 4.67 -2.04 4.34 0 4 C0 2.68 0 1.36 0 0 Z " fill="#3F2420" transform="translate(110,13)"/>
<path d="M0 0 C-0.99898325 2.00692599 -2.00467365 4.00902984 -3.03515625 6 C-3.37417969 6.66 -3.71320313 7.32 -4.0625 8 C-4.40410156 8.66 -4.74570313 9.32 -5.09765625 10 C-6.06514188 11.9798134 -6.06514188 11.9798134 -6.51953125 14.14453125 C-7 16 -7 16 -8.625 17.6875 C-10.79617294 21.33901813 -9.84274052 24.95796675 -9 29 C-8.67 29.66 -8.34 30.32 -8 31 C-6.0085944 31.38133299 -4.00720923 31.71325582 -2 32 C-1.34 32.33 -0.68 32.66 0 33 C-0.33 34.65 -0.66 36.3 -1 38 C-2.485 38.495 -2.485 38.495 -4 39 C-4.061875 38.401875 -4.12375 37.80375 -4.1875 37.1875 C-5.3236757 34.12856542 -7.17330142 33.44958901 -10 32 C-10 33.65 -10 35.3 -10 37 C-10.33 37 -10.66 37 -11 37 C-11 35.02 -11 33.04 -11 31 C-11.78375 30.87625 -12.5675 30.7525 -13.375 30.625 C-16 30 -16 30 -18 28 C-17.875 25 -17.875 25 -17 22 C-14.9453125 20.8125 -14.9453125 20.8125 -13 20 C-12.93941406 18.71222656 -12.87882812 17.42445312 -12.81640625 16.09765625 C-12.73201753 14.41925841 -12.6473687 12.74087364 -12.5625 11.0625 C-12.50352539 9.78729492 -12.50352539 9.78729492 -12.44335938 8.48632812 C-12.40146484 7.67744141 -12.35957031 6.86855469 -12.31640625 6.03515625 C-12.26141968 4.91185913 -12.26141968 4.91185913 -12.20532227 3.76586914 C-12 2 -12 2 -11 1 C-7.27655361 0.45949972 -3.75944015 0 0 0 Z " fill="#D5AF56" transform="translate(126,72)"/>
<path d="M0 0 C0.33 0 0.66 0 1 0 C1.04898438 0.92296875 1.09796875 1.8459375 1.1484375 2.796875 C1.61059507 10.86072769 2.21865551 18.89791459 3 26.9375 C3.0829834 27.81954102 3.1659668 28.70158203 3.25146484 29.61035156 C3.29412244 33.63473734 3.29412244 33.63473734 5 37 C5.07319621 39.69654854 5.09242537 42.36691458 5.0625 45.0625 C5.05798828 45.82111328 5.05347656 46.57972656 5.04882812 47.36132812 C5.0370068 49.24091871 5.01907078 51.12046899 5 53 C3 51.625 3 51.625 1 50 C1 49.34 1 48.68 1 48 C-0.32 47.34 -1.64 46.68 -3 46 C-3 44.68 -3 43.36 -3 42 C-3.66 42 -4.32 42 -5 42 C-6.27404615 38.39162767 -5.70056341 36.01434628 -4.6875 32.375 C-4.26404297 30.77011719 -4.26404297 30.77011719 -3.83203125 29.1328125 C-3.55746094 28.09898437 -3.28289062 27.06515625 -3 26 C-0.84525664 17.4084755 -0.41549082 8.81277897 0 0 Z " fill="#261C0D" transform="translate(107,120)"/>
<path d="M0 0 C1.18227173 0.04616455 1.18227173 0.04616455 2.38842773 0.09326172 C7.2192491 0.34052262 11.39971695 1.12012017 16 2.625 C16 3.285 16 3.945 16 4.625 C9.70273424 5.63256252 3.64250821 5.64050464 -2.73046875 5.46484375 C-6.00293972 5.625144 -8.02642146 6.3506092 -11 7.625 C-12.32 7.625 -13.64 7.625 -15 7.625 C-15 6.965 -15 6.305 -15 5.625 C-18.96 5.295 -22.92 4.965 -27 4.625 C-27 3.305 -27 1.985 -27 0.625 C-20.19193839 -2.77903081 -7.55623671 -0.34148306 0 0 Z " fill="#1B1815" transform="translate(91,98.375)"/>
<path d="M0 0 C0 0.99 0 1.98 0 3 C-1.32 3 -2.64 3 -4 3 C-4 6.3 -4 9.6 -4 13 C-2.68 13.33 -1.36 13.66 0 14 C-0.66 14.66 -1.32 15.32 -2 16 C-3.98226092 15.77619635 -5.96659305 15.54595753 -7.9296875 15.19140625 C-10.19474416 14.98199535 -11.83867378 15.33609486 -14 16 C-14.19551338 14.39679026 -14.38111983 12.79237014 -14.5625 11.1875 C-14.71912109 9.84751953 -14.71912109 9.84751953 -14.87890625 8.48046875 C-15 6 -15 6 -14 3 C-16.97 2.505 -16.97 2.505 -20 2 C-20 1.34 -20 0.68 -20 0 C-12.62178 -1.79283851 -7.31371832 -2.15814639 0 0 Z " fill="#3E2424" transform="translate(102,19)"/>
<path d="M0 0 C0.33 0.99 0.66 1.98 1 3 C1.58265625 2.91621094 2.1653125 2.83242187 2.765625 2.74609375 C9.64981275 1.89098238 16.1183299 2.2314286 23 3 C22.67 2.01 22.34 1.02 22 0 C22.66 0 23.32 0 24 0 C24 0.99 24 1.98 24 3 C25.98 3 27.96 3 30 3 C30 3.66 30 4.32 30 5 C31.29233607 6.37310707 32.62437146 7.71034824 34 9 C33 10 33 10 30.68334961 10.11352539 C29.68311768 10.10828857 28.68288574 10.10305176 27.65234375 10.09765625 C26.57275391 10.09443359 25.49316406 10.09121094 24.38085938 10.08789062 C23.24455078 10.07951172 22.10824219 10.07113281 20.9375 10.0625 C19.79732422 10.05798828 18.65714844 10.05347656 17.48242188 10.04882812 C14.65489649 10.03699747 11.8274736 10.0205141 9 10 C9 9.01 9 8.02 9 7 C7.68 7.33 6.36 7.66 5 8 C5 7.01 5 6.02 5 5 C4.01 5.99 3.02 6.98 2 8 C1.01 7.67 0.02 7.34 -1 7 C-0.67 6.01 -0.34 5.02 0 4 C-0.33 3.34 -0.66 2.68 -1 2 C-0.67 1.34 -0.34 0.68 0 0 Z " fill="#262628" transform="translate(89,215)"/>
<path d="M0 0 C4.71064815 4.58333333 4.71064815 4.58333333 6.5625 7.25 C8.27135463 9.33034477 9.37821395 9.63837434 12 10 C11.01 10.33 10.02 10.66 9 11 C9 11.66 9 12.32 9 13 C11.97 13.495 11.97 13.495 15 14 C15 17.63 15 21.26 15 25 C14.01 25 13.02 25 12 25 C11 24 11 24 10.90234375 22.15234375 C10.95117188 19.07617188 10.95117188 19.07617188 11 16 C9.68 18.64 8.36 21.28 7 24 C6.34 24 5.68 24 5 24 C3.74335022 21.09399739 3 19.20395416 3 16 C-0.86763446 14.12456646 -0.86763446 14.12456646 -5 15 C-5 12.36 -5 9.72 -5 7 C-2 8 -2 8 0 11 C0.66 11 1.32 11 2 11 C1.40138258 8.64828869 0.73075648 6.3140622 0 4 C-0.66 3.67 -1.32 3.34 -2 3 C-1.34 3 -0.68 3 0 3 C0 2.01 0 1.02 0 0 Z " fill="#202A23" transform="translate(73,8)"/>
<path d="M0 0 C0.99 0.99 1.98 1.98 3 3 C2.34 3.66 1.68 4.32 1 5 C-0.32972488 9.74075826 0.00819793 14.38298964 0.16015625 19.2578125 C0 22 0 22 -2 25 C-2 24.01 -2 23.02 -2 22 C-2.92232422 21.90912109 -2.92232422 21.90912109 -3.86328125 21.81640625 C-4.67152344 21.73261719 -5.47976562 21.64882812 -6.3125 21.5625 C-7.11300781 21.48128906 -7.91351563 21.40007812 -8.73828125 21.31640625 C-11 21 -11 21 -14 20 C-14 19.34 -14 18.68 -14 18 C-13.34 18 -12.68 18 -12 18 C-11.74089844 17.43152344 -11.48179688 16.86304687 -11.21484375 16.27734375 C-9.8874939 13.78909628 -8.33118581 11.75719186 -6.5625 9.5625 C-4.12362586 6.4834214 -1.89415643 3.45404997 0 0 Z " fill="#E7D79A" transform="translate(112,52)"/>
<path d="M0 0 C5.00113397 7.50170095 3.11578893 19.25373873 3.0625 28.0625 C3.05747414 29.51497241 3.05291316 30.96744651 3.04882812 32.41992188 C3.03791042 35.94665015 3.02070586 39.47331402 3 43 C2.67 43 2.34 43 2 43 C-0.14982548 33.9400212 -0.20871753 25.24154826 0 16 C-0.66 16 -1.32 16 -2 16 C-2.33 12.7 -2.66 9.4 -3 6 C-4.65 6.33 -6.3 6.66 -8 7 C-8.33 6.34 -8.66 5.68 -9 5 C-6.03 3.35 -3.06 1.7 0 0 Z " fill="#382E1A" transform="translate(108,104)"/>
<path d="M0 0 C3.31632003 2.32787043 6.14209221 5.14209221 9 8 C1.88610478 14.70387244 1.88610478 14.70387244 -3 15 C-3.61875 14.071875 -3.61875 14.071875 -4.25 13.125 C-6.05573879 10.93231719 -7.4090534 10.07211583 -10 9 C-8.35 9 -6.7 9 -5 9 C-5.66 7.68 -6.32 6.36 -7 5 C-6.34 4.67 -5.68 4.34 -5 4 C-7.31 3.67 -9.62 3.34 -12 3 C-7.98920616 0.92545146 -4.56628433 -0.72645433 0 0 Z " fill="#F2E09F" transform="translate(149,90)"/>
<path d="M0 0 C1.4783226 2.95664519 1.06032783 5.74229737 1 9 C-2.63 9 -6.26 9 -10 9 C-10 9.66 -10 10.32 -10 11 C-10.66 11 -11.32 11 -12 11 C-12 11.66 -12 12.32 -12 13 C-12.66 13 -13.32 13 -14 13 C-14 12.34 -14 11.68 -14 11 C-14.66 11 -15.32 11 -16 11 C-16 10.34 -16 9.68 -16 9 C-17.65 9 -19.3 9 -21 9 C-21 6.36 -21 3.72 -21 1 C-16.33333333 1 -11.66666667 1 -7 1 C-7 1.66 -7 2.32 -7 3 C-7.66 3 -8.32 3 -9 3 C-9 4.32 -9 5.64 -9 7 C-7.04105639 6.88693303 -7.04105639 6.88693303 -5 6 C-4.29788106 4.34795544 -3.63028587 2.68076231 -3 1 C-2.01 0.67 -1.02 0.34 0 0 Z " fill="#442222" transform="translate(169,42)"/>
<path d="M0 0 C0.66 0 1.32 0 2 0 C1.52491926 2.44327236 1.04141878 4.85089239 0.375 7.25 C0.25125 7.8275 0.1275 8.405 0 9 C0.33 9.33 0.66 9.66 1 10 C1.25 13.4375 1.25 13.4375 1 17 C-2.08888522 19.05925681 -2.70935927 19.2390374 -6.1875 19.125 C-7.445625 19.08375 -8.70375 19.0425 -10 19 C-8.125 14.25 -8.125 14.25 -7 12 C-7.66 12 -8.32 12 -9 12 C-9 9.36 -9 6.72 -9 4 C-4.56923077 1.90769231 -4.56923077 1.90769231 -1.6875 2.375 C-1.130625 2.58125 -0.57375 2.7875 0 3 C0 2.01 0 1.02 0 0 Z " fill="#A2121A" transform="translate(167,16)"/>
<path d="M0 0 C0 4.29 0 8.58 0 13 C-6 15 -6 15 -8.359375 14.01171875 C-10.64154005 11.2133497 -10.4032284 9.3750602 -10.25 5.8125 C-10.21390625 4.72582031 -10.1778125 3.63914062 -10.140625 2.51953125 C-10.09421875 1.68808594 -10.0478125 0.85664063 -10 0 C-5.87056754 -2.85883785 -5.4911845 -1.83039483 0 0 Z " fill="#DE0614" transform="translate(121,20)"/>
<path d="M0 0 C2 1 4 2 6 3 C6.66 2.34 7.32 1.68 8 1 C8.33982773 4.68955821 8.2990668 6.52857808 6.28515625 9.703125 C5.55167969 10.54359375 4.81820312 11.3840625 4.0625 12.25 C1.23182958 15.42618548 1.23182958 15.42618548 -1 19 C-1.66 19 -2.32 19 -3 19 C-3.0809313 16.39521117 -3.14045434 13.79293347 -3.1875 11.1875 C-3.22520508 10.08051758 -3.22520508 10.08051758 -3.26367188 8.95117188 C-3.33834499 3.45025238 -3.33834499 3.45025238 -1.48828125 0.98828125 C-0.99714844 0.66214844 -0.50601563 0.33601562 0 0 Z " fill="#BF912D" transform="translate(115,155)"/>
<path d="M0 0 C1.32 0.33 2.64 0.66 4 1 C3.67 1.66 3.34 2.32 3 3 C4.32 3.33 5.64 3.66 7 4 C6.67 5.98 6.34 7.96 6 10 C6.66 9.67 7.32 9.34 8 9 C8 7.02 8 5.04 8 3 C9.32 3 10.64 3 12 3 C12.46963359 7.03884885 12.35683282 8.54121494 9.8125 11.8125 C6.99647638 14.0027406 5.51953479 14.80975488 2 15 C1.34 14.67 0.68 14.34 0 14 C0 12 0 12 2 10 C0.35 9.67 -1.3 9.34 -3 9 C-3 7.02 -3 5.04 -3 3 C-2.34 2.67 -1.68 2.34 -1 2 C-0.01 2.33 0.98 2.66 2 3 C2 2.34 2 1.68 2 1 C1.34 0.67 0.68 0.34 0 0 Z " fill="#2E2E30" transform="translate(58,185)"/>
<path d="M0 0 C2.97 0.33 5.94 0.66 9 1 C9.9702889 3.91086669 10.16467847 5.90223685 10.1875 8.9375 C10.20167969 9.79214844 10.21585938 10.64679688 10.23046875 11.52734375 C9.98703556 14.13909303 9.3178268 15.75500652 8 18 C4.33443814 14.7103932 2.7262536 12.84169065 2 8 C1.46375 7.13375 0.9275 6.2675 0.375 5.375 C-0.305625 4.199375 -0.305625 4.199375 -1 3 C-0.67 2.01 -0.34 1.02 0 0 Z " fill="#332511" transform="translate(101,73)"/>
<path d="M0 0 C2.31 0 4.62 0 7 0 C7.144375 1.11375 7.28875 2.2275 7.4375 3.375 C7.78372035 6.82142047 7.78372035 6.82142047 9 9 C10.9914056 9.38133299 12.99279077 9.71325582 15 10 C15.66 10.33 16.32 10.66 17 11 C16.67 12.65 16.34 14.3 16 16 C15.01 16.33 14.02 16.66 13 17 C12.938125 16.401875 12.87625 15.80375 12.8125 15.1875 C11.6763243 12.12856542 9.82669858 11.44958901 7 10 C7 11.65 7 13.3 7 15 C6.67 15 6.34 15 6 15 C6 13.02 6 11.04 6 9 C5.21625 8.87625 4.4325 8.7525 3.625 8.625 C1 8 1 8 -1 6 C-0.625 2.875 -0.625 2.875 0 0 Z " fill="#D4C287" transform="translate(109,94)"/>
<path d="M0 0 C1.32 0.66 2.64 1.32 4 2 C4 7.28 4 12.56 4 18 C2.68 17.01 1.36 16.02 0 15 C0 14.34 0 13.68 0 13 C-1.32 12.34 -2.64 11.68 -4 11 C-4 9.68 -4 8.36 -4 7 C-4.66 7 -5.32 7 -6 7 C-6 6.01 -6 5.02 -6 4 C-3 1.8125 -3 1.8125 0 0 Z " fill="#0A0908" transform="translate(108,155)"/>
<path d="M0 0 C0.8125 2.125 0.8125 2.125 1 4 C-0.46179688 3.7525 -0.46179688 3.7525 -1.953125 3.5 C-6.23319109 2.88794624 -10.43543907 2.92470225 -14.75 3 C-22.59756098 3.13414634 -22.59756098 3.13414634 -26 2 C-26 1.34 -26 0.68 -26 0 C-18.18629873 -2.9766481 -7.56746201 -3.98580872 0 0 Z " fill="#120E0D" transform="translate(144,101)"/>
<path d="M0 0 C0 0.66 0 1.32 0 2 C-6.04819812 2.88902912 -11.89223486 3.12348383 -18 3.0625 C-18.87011719 3.05798828 -19.74023438 3.05347656 -20.63671875 3.04882812 C-22.75784293 3.0371736 -24.8789311 3.01924357 -27 3 C-25.21240234 -0.90771484 -25.21240234 -0.90771484 -23.30078125 -1.73828125 C-15.47470526 -2.628514 -7.42430916 -2.82830825 0 0 Z " fill="#090607" transform="translate(107,101)"/>
<path d="M0 0 C2 1.0625 2 1.0625 4 3 C4.25 6.6875 4.25 6.6875 4 10 C4.66 10 5.32 10 6 10 C5.814375 10.763125 5.62875 11.52625 5.4375 12.3125 C4.77180827 15.08967375 4.77180827 15.08967375 6 18 C5.34 18.33 4.68 18.66 4 19 C3.67 17.68 3.34 16.36 3 15 C1.68 14.67 0.36 14.34 -1 14 C-0.67 13.34 -0.34 12.68 0 12 C-1.27875 12.165 -2.5575 12.33 -3.875 12.5 C-5.94627065 12.76726073 -7.91103575 13 -10 13 C-10 12.34 -10 11.68 -10 11 C-10.66 11 -11.32 11 -12 11 C-12 9.02 -12 7.04 -12 5 C-11.67 5 -11.34 5 -11 5 C-11 6.65 -11 8.3 -11 10 C-10.01 10 -9.02 10 -8 10 C-7.67 9.34 -7.34 8.68 -7 8 C-7 8.66 -7 9.32 -7 10 C-4.48916886 8.74458443 -4.12874554 7.49936512 -3 5 C-2.67 5 -2.34 5 -2 5 C-2 6.65 -2 8.3 -2 10 C-1.34 10 -0.68 10 0 10 C0 8.35 0 6.7 0 5 C0.33 5 0.66 5 1 5 C1 6.65 1 8.3 1 10 C1.66 10 2.32 10 3 10 C2.65772428 7.02934491 2.65772428 7.02934491 2 4 C1.34 3.67 0.68 3.34 0 3 C0 2.01 0 1.02 0 0 Z " fill="#202021" transform="translate(105,184)"/>
<path d="M0 0 C2.5078125 1.50390625 2.5078125 1.50390625 5 4 C5.24166583 6.89689171 5.20954719 9.1028184 4.875 11.9375 C4.80804932 12.68443115 4.74109863 13.4313623 4.67211914 14.20092773 C4.53394199 15.72836301 4.3852538 17.25488387 4.22607422 18.78027344 C3.89439646 22.03687626 3.67072096 25.29740659 3.4375 28.5625 C3.29328833 30.37512975 3.1481369 32.18768682 3 34 C2.67 34 2.34 34 2 34 C-0.38776806 10.21122564 -0.38776806 10.21122564 0 0 Z " fill="#F4F3BF" transform="translate(110,104)"/>
<path d="M0 0 C1.75 2.3125 1.75 2.3125 3 5 C2.67 5.99 2.34 6.98 2 8 C-0.88437779 6.70700306 -2.87219421 5.34058637 -5 3 C-4.835 4.093125 -4.67 5.18625 -4.5 6.3125 C-3.88419539 10.85405902 -4.20222868 14.51253632 -5 19 C-5.66 19 -6.32 19 -7 19 C-8.96662346 13.56286456 -9.76756746 8.64045413 -8 3 C-5.12855653 0.50637804 -3.7938847 0 0 0 Z " fill="#9F141D" transform="translate(73,12)"/>
<path d="M0 0 C4.9723422 1.49170266 9.41845739 3.60457417 14 6 C14 6.99 14 7.98 14 9 C9.71 9 5.42 9 1 9 C-1.08954032 4.82091936 -1.16552619 4.19589427 0 0 Z " fill="#D2D2D2" transform="translate(106,205)"/>
<path d="M0 0 C1.87890625 0.25 1.87890625 0.25 4 1 C5.08984375 2.8125 5.08984375 2.8125 5.9375 5 C6.8570708 7.16549509 6.8570708 7.16549509 8 9 C10.6147267 10.12815365 10.6147267 10.12815365 13 10 C13 10.66 13 11.32 13 12 C10.03 11.505 10.03 11.505 7 11 C7.33 12.32 7.66 13.64 8 15 C5.35940606 14.55990101 3.20426133 14.10504868 0.8125 12.875 C-0.0846875 12.441875 -0.0846875 12.441875 -1 12 C-1.99 12.495 -1.99 12.495 -3 13 C-2.67 12.01 -2.34 11.02 -2 10 C0.5625 8.8125 0.5625 8.8125 3 8 C2.01 7.34 1.02 6.68 0 6 C-0.1875 2.875 -0.1875 2.875 0 0 Z " fill="#382427" transform="translate(68,25)"/>
<path d="M0 0 C0.99 0 1.98 0 3 0 C3 0.66 3 1.32 3 2 C3.66 2 4.32 2 5 2 C5 5.96 5 9.92 5 14 C5.66 14 6.32 14 7 14 C7 14.66 7 15.32 7 16 C5.125 16.625 5.125 16.625 3 17 C2.34 16.34 1.68 15.68 1 15 C-0.65 15.66 -2.3 16.32 -4 17 C-4.625 14.125 -4.625 14.125 -5 11 C-4.34 10.34 -3.68 9.68 -3 9 C-3 10.32 -3 11.64 -3 13 C-1.35 13 0.3 13 2 13 C1.88637738 11.5199159 1.75877092 10.04089926 1.625 8.5625 C1.52058594 7.32693359 1.52058594 7.32693359 1.4140625 6.06640625 C1.27742187 5.38449219 1.14078125 4.70257812 1 4 C0.34 3.67 -0.32 3.34 -1 3 C-0.67 2.01 -0.34 1.02 0 0 Z " fill="#CD0C1C" transform="translate(142,18)"/>
<path d="M0 0 C1.32 0 2.64 0 4 0 C4.33 1.98 4.66 3.96 5 6 C4.34 6 3.68 6 3 6 C3.33 10.29 3.66 14.58 4 19 C0 17 0 17 -0.8984375 14.609375 C-2.48275862 5.10344828 -2.48275862 5.10344828 0 0 Z " fill="#34342F" transform="translate(123,144)"/>
<path d="M0 0 C0.99 0.33 1.98 0.66 3 1 C3 1.66 3 2.32 3 3 C4.7325 2.7215625 4.7325 2.7215625 6.5 2.4375 C10.86389648 1.8764276 14.66733065 2.30367814 19 3 C19 3.66 19 4.32 19 5 C12.93751718 7.10868968 5.79381053 8.67468716 -0.30078125 5.984375 C-0.86152344 5.65953125 -1.42226562 5.3346875 -2 5 C-1.34 4.67 -0.68 4.34 0 4 C0 2.68 0 1.36 0 0 Z " fill="#343333" transform="translate(125,86)"/>
<path d="M0 0 C0.66 0 1.32 0 2 0 C2.19441368 2.2910905 2.38033135 4.58290337 2.5625 6.875 C2.66691406 8.15117187 2.77132812 9.42734375 2.87890625 10.7421875 C3 14 3 14 2 16 C2.66 16 3.32 16 4 16 C4.07347656 16.92232422 4.07347656 16.92232422 4.1484375 17.86328125 C4.22320312 18.67152344 4.29796875 19.47976562 4.375 20.3125 C4.44460937 21.11300781 4.51421875 21.91351563 4.5859375 22.73828125 C4.89564426 25.27224441 4.89564426 25.27224441 7 28 C6.67 28.99 6.34 29.98 6 31 C3.08551611 29.88316365 1.87382956 29.40978511 0 27 C-0.79408549 22.41090637 -0.56098051 17.88997526 -0.375 13.25 C-0.34792969 11.98027344 -0.32085937 10.71054688 -0.29296875 9.40234375 C-0.2222359 6.26652094 -0.12356492 3.13411337 0 0 Z " fill="#E5C36B" transform="translate(115,128)"/>
<path d="M0 0 C5.28 0 10.56 0 16 0 C16 0.33 16 0.66 16 1 C14.02 1.33 12.04 1.66 10 2 C10.99 2 11.98 2 13 2 C15.66666667 2 18.33333333 2 21 2 C21.33 2.99 21.66 3.98 22 5 C14.74 5 7.48 5 0 5 C0 3.35 0 1.7 0 0 Z " fill="#7C7C7E" transform="translate(90,213)"/>
<path d="M0 0 C0.38063221 2.3260857 0.71269945 4.66055264 1 7 C0 8 0 8 -3.16015625 8.09765625 C-5.09181641 8.08025391 -5.09181641 8.08025391 -7.0625 8.0625 C-8.35285156 8.05347656 -9.64320312 8.04445313 -10.97265625 8.03515625 C-11.97167969 8.02355469 -12.97070312 8.01195313 -14 8 C-5.29810298 -0.77913279 -5.29810298 -0.77913279 0 0 Z " fill="#B58F39" transform="translate(81,90)"/>
<path d="M0 0 C5.61 0 11.22 0 17 0 C17 0.66 17 1.32 17 2 C19.64 1.67 22.28 1.34 25 1 C25 1.66 25 2.32 25 3 C26.65 3 28.3 3 30 3 C30 3.99 30 4.98 30 6 C27.69 6 25.38 6 23 6 C23 5.01 23 4.02 23 3 C21.54119891 3.14107747 20.08296449 3.28802415 18.625 3.4375 C17.81289062 3.51871094 17.00078125 3.59992188 16.1640625 3.68359375 C13.95727195 3.89090114 13.95727195 3.89090114 12 5 C9.94140625 4.765625 9.94140625 4.765625 7.5625 4.25 C6.78003906 4.09015625 5.99757813 3.9303125 5.19140625 3.765625 C3 3 3 3 0 0 Z " fill="#3E3E3F" transform="translate(90,212)"/>
<path d="M0 0 C0.66 0 1.32 0 2 0 C2 1.65 2 3.3 2 5 C2.66 5 3.32 5 4 5 C4 3.35 4 1.7 4 0 C4.33 0 4.66 0 5 0 C5 1.65 5 3.3 5 5 C5.66 5 6.32 5 7 5 C7 3.35 7 1.7 7 0 C7.33 0 7.66 0 8 0 C8 1.65 8 3.3 8 5 C9.65 5 11.3 5 13 5 C12.67 6.65 12.34 8.3 12 10 C11.34 10 10.68 10 10 10 C9.67 9.67 9.34 9.34 9 9 C8.443125 9.165 7.88625 9.33 7.3125 9.5 C4.33238612 10.14434895 1.96131777 9.60572409 -1 9 C-0.67 6.03 -0.34 3.06 0 0 Z " fill="#252526" transform="translate(139,189)"/>
<path d="M0 0 C4.29 0 8.58 0 13 0 C13 1.65 13 3.3 13 5 C11.35 5.66 9.7 6.32 8 7 C8.33 7.99 8.66 8.98 9 10 C8.01 10.33 7.02 10.66 6 11 C5.34 9.35 4.68 7.7 4 6 C3.34 6 2.68 6 2 6 C2 4.35 2 2.7 2 1 C1.34 0.67 0.68 0.34 0 0 Z " fill="#9E9EA0" transform="translate(158,188)"/>
<path d="M0 0 C1.32 0 2.64 0 4 0 C5.01866229 1.65532623 6.01810813 3.32260138 7 5 C9.08533633 5.87822312 9.08533633 5.87822312 11 6 C11 7.65 11 9.3 11 11 C9.68 10.01 8.36 9.02 7 8 C6.34 8.66 5.68 9.32 5 10 C4.67 9.34 4.34 8.68 4 8 C2.88625 8.66 1.7725 9.32 0.625 10 C-2.75 12 -2.75 12 -5 12 C-5 10.68 -5 9.36 -5 8 C-2.09399739 6.74335022 -0.20395416 6 3 6 C3 5.34 3 4.68 3 4 C2.01 3.67 1.02 3.34 0 3 C0 2.01 0 1.02 0 0 Z " fill="#E9E5BA" transform="translate(104,97)"/>
<path d="M0 0 C0.33 4.95 0.66 9.9 1 15 C-0.32 15.33 -1.64 15.66 -3 16 C-3.19551338 14.39679026 -3.38111983 12.79237014 -3.5625 11.1875 C-3.71912109 9.84751953 -3.71912109 9.84751953 -3.87890625 8.48046875 C-4 6 -4 6 -3 3 C-5.97 2.505 -5.97 2.505 -9 2 C-9 1.34 -9 0.68 -9 0 C-6 -1 -6 -1 0 0 Z " fill="#D2071A" transform="translate(91,19)"/>
<path d="M0 0 C0.33 0.66 0.66 1.32 1 2 C1.99 2.33 2.98 2.66 4 3 C4 5.97 4 8.94 4 12 C3.01 12.33 2.02 12.66 1 13 C0.01 12.01 -0.98 11.02 -2 10 C-2 11.65 -2 13.3 -2 15 C-2.66 14.67 -3.32 14.34 -4 14 C-4 11.69 -4 9.38 -4 7 C-3.34 6.67 -2.68 6.34 -2 6 C-1.27306096 4.02111039 -0.60183749 2.02045442 0 0 Z " fill="#721C20" transform="translate(140,19)"/>
<path d="M0 0 C1.16144531 0.00902344 2.32289063 0.01804687 3.51953125 0.02734375 C4.39996094 0.03894531 5.28039062 0.05054687 6.1875 0.0625 C2.76361908 3.88919043 0.18025057 5.78528474 -4.8125 7.0625 C-5.225 6.44375 -5.6375 5.825 -6.0625 5.1875 C-7.86823879 2.99481719 -9.2215534 2.13461583 -11.8125 1.0625 C-7.81454108 0.10630267 -4.10446078 -0.0414592 0 0 Z " fill="#CFAE5D" transform="translate(150.8125,97.9375)"/>
<path d="M0 0 C0.598125 0.226875 1.19625 0.45375 1.8125 0.6875 C1.8125 1.6775 1.8125 2.6675 1.8125 3.6875 C0.4925 3.6875 -0.8275 3.6875 -2.1875 3.6875 C-2.1875 6.9875 -2.1875 10.2875 -2.1875 13.6875 C-0.8675 14.0175 0.4525 14.3475 1.8125 14.6875 C1.1525 15.3475 0.4925 16.0075 -0.1875 16.6875 C-3.72321429 16.15178571 -3.72321429 16.15178571 -5.1875 14.6875 C-5.33917148 12.73327134 -5.40929996 10.77240271 -5.4375 8.8125 C-5.46328125 7.74257813 -5.4890625 6.67265625 -5.515625 5.5703125 C-5.1875 2.6875 -5.1875 2.6875 -3.80859375 0.78515625 C-2.1875 -0.3125 -2.1875 -0.3125 0 0 Z " fill="#DA0612" transform="translate(100.1875,18.3125)"/>
<path d="M0 0 C0.99 0 1.98 0 3 0 C3.103125 0.9075 3.20625 1.815 3.3125 2.75 C4.01230104 6.05815035 4.90234102 7.4463282 7 10 C7 10.66 7 11.32 7 12 C1.25 15 1.25 15 -1 15 C-1 12 -1 12 0 11 C-0.37125 10.113125 -0.7425 9.22625 -1.125 8.3125 C-2.10784228 4.59173995 -1.76062164 3.32561865 0 0 Z " fill="#292725" transform="translate(98,72)"/>
<path d="M0 0 C4.95 0.99 4.95 0.99 10 2 C10 3.98 10 5.96 10 8 C6.7 8 3.4 8 0 8 C0 5.36 0 2.72 0 0 Z " fill="#A4A4A6" transform="translate(109,186)"/>
<path d="M0 0 C1.37562854 1.28965176 2.70766393 2.62689293 4 4 C4 4.66 4 5.32 4 6 C4.99 6.33 5.98 6.66 7 7 C6.67 8.65 6.34 10.3 6 12 C0.46153846 11.50769231 0.46153846 11.50769231 -1.875 8.9375 C-2.24625 8.298125 -2.6175 7.65875 -3 7 C-2.67 6.67 -2.34 6.34 -2 6 C-2.66 5.67 -3.32 5.34 -4 5 C-2.25 1.125 -2.25 1.125 0 0 Z " fill="#D4CDA3" transform="translate(103,84)"/>
<path d="M0 0 C1.32 0.33 2.64 0.66 4 1 C3.625 3.9375 3.625 3.9375 3 7 C2.01 7.495 2.01 7.495 1 8 C1 8.66 1 9.32 1 10 C-0.98 10.33 -2.96 10.66 -5 11 C-5.68359375 9.234375 -5.68359375 9.234375 -6 7 C-4.78515625 5.078125 -4.78515625 5.078125 -3.0625 3.25 C-2.49660156 2.63640625 -1.93070312 2.0228125 -1.34765625 1.390625 C-0.90292969 0.93171875 -0.45820312 0.4728125 0 0 Z " fill="#F3E7AF" transform="translate(121,85)"/>
<path d="M0 0 C0.33 0 0.66 0 1 0 C1 4.29 1 8.58 1 13 C-1.97 12.505 -1.97 12.505 -5 12 C-5 8.7 -5 5.4 -5 2 C-3.68 2 -2.36 2 -1 2 C-0.67 1.34 -0.34 0.68 0 0 Z " fill="#282728" transform="translate(103,20)"/>
<path d="M0 0 C0.99 0.33 1.98 0.66 3 1 C3 1.66 3 2.32 3 3 C3.66 3.33 4.32 3.66 5 4 C4.67 7.96 4.34 11.92 4 16 C2.68 15.67 1.36 15.34 0 15 C-0.19390729 12.68802845 -0.37996367 10.3753971 -0.5625 8.0625 C-0.71912109 6.13083984 -0.71912109 6.13083984 -0.87890625 4.16015625 C-0.91886719 3.11730469 -0.95882812 2.07445312 -1 1 C-0.67 0.67 -0.34 0.34 0 0 Z " fill="#C80B18" transform="translate(124,18)"/>
<path d="M0 0 C1.32 0.33 2.64 0.66 4 1 C3.67 1.66 3.34 2.32 3 3 C4.32 3.33 5.64 3.66 7 4 C6.125 7.875 6.125 7.875 5 9 C2.32941149 9.14115161 -0.32432238 9.04247107 -3 9 C-3 7.02 -3 5.04 -3 3 C-2.34 2.67 -1.68 2.34 -1 2 C-0.01 2.33 0.98 2.66 2 3 C2 2.34 2 1.68 2 1 C1.34 0.67 0.68 0.34 0 0 Z " fill="#D3D3D3" transform="translate(58,185)"/>
<path d="M0 0 C0.99 0 1.98 0 3 0 C3 0.66 3 1.32 3 2 C5.31 2.33 7.62 2.66 10 3 C9.01 3.495 9.01 3.495 8 4 C8.33 6.31 8.66 8.62 9 11 C7.35 11 5.7 11 4 11 C4 10.34 4 9.68 4 9 C3.01 8.67 2.02 8.34 1 8 C0.67 5.36 0.34 2.72 0 0 Z " fill="#AFAFB0" transform="translate(71,185)"/>
<path d="M0 0 C0.93423645 3.01031744 1.04449911 3.86650268 0 7 C0.38932856 9.14255793 0.38932856 9.14255793 1 11 C-5.75 15 -5.75 15 -8 15 C-6.51194289 9.19657726 -3.40902445 4.82409121 0 0 Z " fill="#423C32" transform="translate(127,71)"/>
<path d="M0 0 C3.04386724 -0.08226668 5.07175348 0.02391783 8 1 C10.63804589 0.60602665 10.63804589 0.60602665 13 0 C13.66 1.98 14.32 3.96 15 6 C11.7 6 8.4 6 5 6 C5 4.68 5 3.36 5 2 C4.01 2.495 4.01 2.495 3 3 C3 3.99 3 4.98 3 6 C2.01 6 1.02 6 0 6 C0 4.02 0 2.04 0 0 Z " fill="#C4C4C5" transform="translate(82,188)"/>
<path d="M0 0 C1.32 0.66 2.64 1.32 4 2 C4.1875 5.375 4.1875 5.375 4 9 C0.91111478 11.05925681 0.29064073 11.2390374 -3.1875 11.125 C-5.0746875 11.063125 -5.0746875 11.063125 -7 11 C-6.34 9.68 -5.68 8.36 -5 7 C-2.03 7.495 -2.03 7.495 1 8 C1 6.35 1 4.7 1 3 C-0.32 2.67 -1.64 2.34 -3 2 C-2.01 1.34 -1.02 0.68 0 0 Z " fill="#D3071A" transform="translate(164,24)"/>
<path d="M0 0 C1.953125 0.5859375 1.953125 0.5859375 4 2 C4.609375 5.0390625 4.609375 5.0390625 4.75 8.625 C4.80671875 9.81351563 4.8634375 11.00203125 4.921875 12.2265625 C4.94765625 13.14179688 4.9734375 14.05703125 5 15 C3.68 15.33 2.36 15.66 1 16 C0.92652344 14.73542969 0.92652344 14.73542969 0.8515625 13.4453125 C0.77679688 12.34960938 0.70203125 11.25390625 0.625 10.125 C0.55539063 9.03445312 0.48578125 7.94390625 0.4140625 6.8203125 C0.26746509 3.86953526 0.26746509 3.86953526 -2 2 C-1.34 1.34 -0.68 0.68 0 0 Z " fill="#C10A1D" transform="translate(131,18)"/>
<path d="M0 0 C6.15234375 -0.09765625 6.15234375 -0.09765625 8 0 C9 1 9 1 9.0625 4.0625 C9.041875 5.031875 9.02125 6.00125 9 7 C8.34 7 7.68 7 7 7 C6.67 6.01 6.34 5.02 6 4 C5.67 4.99 5.34 5.98 5 7 C3.35 7.33 1.7 7.66 0 8 C0 5.36 0 2.72 0 0 Z " fill="#A2121F" transform="translate(148,43)"/>
<path d="M0 0 C0 2.64 0 5.28 0 8 C-0.33 8 -0.66 8 -1 8 C-1.33 10.64 -1.66 13.28 -2 16 C-2.33 16 -2.66 16 -3 16 C-3.33 12.7 -3.66 9.4 -4 6 C-5.65 6.33 -7.3 6.66 -9 7 C-9.33 6.34 -9.66 5.68 -10 5 C-8.52227402 4.1641146 -7.04277811 3.33135744 -5.5625 2.5 C-4.32693359 1.80390625 -4.32693359 1.80390625 -3.06640625 1.09375 C-1 0 -1 0 0 0 Z " fill="#231A12" transform="translate(109,104)"/>
<path d="M0 0 C0.99 0 1.98 0 3 0 C3.33 4.95 3.66 9.9 4 15 C2.68 15.33 1.36 15.66 0 16 C0 10.72 0 5.44 0 0 Z " fill="#DF0615" transform="translate(104,19)"/>
<path d="M0 0 C0.66 0.33 1.32 0.66 2 1 C2.31241371 3.54941373 2.51303421 6.00361513 2.625 8.5625 C2.66367188 9.27341797 2.70234375 9.98433594 2.7421875 10.71679688 C2.83671783 12.47742425 2.91945817 14.23867728 3 16 C1.68 16 0.36 16 -1 16 C-1.02685095 13.52076199 -1.04676547 11.0418116 -1.0625 8.5625 C-1.07506836 7.50192383 -1.07506836 7.50192383 -1.08789062 6.41992188 C-1.09653588 4.61306441 -1.05220011 2.80612397 -1 1 C-0.67 0.67 -0.34 0.34 0 0 Z " fill="#DC0616" transform="translate(152,18)"/>
<path d="M0 0 C0.33 0 0.66 0 1 0 C1.37074077 7.86794293 1.329594 15.69681646 -2 23 C-2.99 23.33 -3.98 23.66 -5 24 C-4.40566062 19.14622841 -3.35175466 14.69138382 -2 10 C-1.28352525 6.6759471 -0.63191327 3.34107334 0 0 Z " fill="#1E1611" transform="translate(106,136)"/>
<path d="M0 0 C2.31 0.66 4.62 1.32 7 2 C7 5.63 7 9.26 7 13 C6.01 13 5.02 13 4 13 C3 12 3 12 2.90234375 10.15234375 C2.93489583 8.1015625 2.96744792 6.05078125 3 4 C2.01 3.67 1.02 3.34 0 3 C0 2.01 0 1.02 0 0 Z " fill="#402321" transform="translate(81,20)"/>
<path d="M0 0 C1.98 0 3.96 0 6 0 C5.01 0.495 5.01 0.495 4 1 C4.66 1.66 5.32 2.32 6 3 C6 3.99 6 4.98 6 6 C3.69 6.33 1.38 6.66 -1 7 C-1 7.66 -1 8.32 -1 9 C-1.66 9 -2.32 9 -3 9 C-3.33 9.66 -3.66 10.32 -4 11 C-3.67 8.69 -3.34 6.38 -3 4 C-2.34 4 -1.68 4 -1 4 C-0.67 3.34 -0.34 2.68 0 2 C0.66 2.33 1.32 2.66 2 3 C2 2.34 2 1.68 2 1 C1.34 0.67 0.68 0.34 0 0 Z " fill="#F7F0C0" transform="translate(120,92)"/>
<path d="M0 0 C6.875 2.75 6.875 2.75 8 5 C6.02 5.99 6.02 5.99 4 7 C4.66 7.33 5.32 7.66 6 8 C3.03 7.67 0.06 7.34 -3 7 C-2.01 4.69 -1.02 2.38 0 0 Z " fill="#F4EFBE" transform="translate(100,92)"/>
<path d="M0 0 C2.64 0.66 5.28 1.32 8 2 C8 2.66 8 3.32 8 4 C2.06975197 4.97040422 -3.06390334 4.89316269 -9 4 C-8.34 3.01 -7.68 2.02 -7 1 C-4.69 1.33 -2.38 1.66 0 2 C0 1.34 0 0.68 0 0 Z " fill="#13100E" transform="translate(99,99)"/>
<path d="M0 0 C0.66 0.33 1.32 0.66 2 1 C2.60709557 7.92088947 1.44071801 10.67113839 -3 16 C-4.32 15.67 -5.64 15.34 -7 15 C-6.34 14.67 -5.68 14.34 -5 14 C-4.26924352 11.6859378 -3.59861742 9.35171131 -3 7 C-2.34 7 -1.68 7 -1 7 C-0.67 4.69 -0.34 2.38 0 0 Z " fill="#D6BC6D" transform="translate(118,78)"/>
<path d="M0 0 C1.98 0 3.96 0 6 0 C6.33 1.98 6.66 3.96 7 6 C5.1875 6.625 5.1875 6.625 3 7 C2.01 6.34 1.02 5.68 0 5 C-0.1875 2.375 -0.1875 2.375 0 0 Z " fill="#231E11" transform="translate(110,94)"/>
<path d="M0 0 C0.33 0 0.66 0 1 0 C1.33 5.28 1.66 10.56 2 16 C1.34 16.33 0.68 16.66 0 17 C0.66 17.66 1.32 18.32 2 19 C1.01 19.33 0.02 19.66 -1 20 C-1.33 19.01 -1.66 18.02 -2 17 C-2.928125 17.309375 -2.928125 17.309375 -3.875 17.625 C-4.57625 17.74875 -5.2775 17.8725 -6 18 C-6.66 17.34 -7.32 16.68 -8 16 C-5.25002779 14.5268006 -3.10380501 13.77595125 0 13 C0 8.71 0 4.42 0 0 Z " fill="#442125" transform="translate(121,20)"/>
<path d="M0 0 C0.99 0.33 1.98 0.66 3 1 C2.01 3.64 1.02 6.28 0 9 C-0.33 9 -0.66 9 -1 9 C-1 12.3 -1 15.6 -1 19 C-1.66 19 -2.32 19 -3 19 C-3.0809313 16.39521117 -3.14045434 13.79293347 -3.1875 11.1875 C-3.22520508 10.08051758 -3.22520508 10.08051758 -3.26367188 8.95117188 C-3.33834499 3.45025238 -3.33834499 3.45025238 -1.48828125 0.98828125 C-0.99714844 0.66214844 -0.50601563 0.33601562 0 0 Z " fill="#A88025" transform="translate(115,155)"/>
<path d="M0 0 C0.66 0 1.32 0 2 0 C2.33 3.96 2.66 7.92 3 12 C1.02 12.66 -0.96 13.32 -3 14 C-2.01 9.38 -1.02 4.76 0 0 Z " fill="#352A1C" transform="translate(107,144)"/>
<path d="M0 0 C2.64752004 2.57784846 4.94432065 4.91648098 7 8 C6.625 10.1875 6.625 10.1875 6 12 C6 11.01 6 10.02 6 9 C5.34 9 4.68 9 4 9 C4.33 10.32 4.66 11.64 5 13 C4.01 12.67 3.02 12.34 2 12 C1.855625 11.236875 1.71125 10.47375 1.5625 9.6875 C1.0367406 6.91827092 1.0367406 6.91827092 0 4 C-0.66 3.67 -1.32 3.34 -2 3 C-1.34 3 -0.68 3 0 3 C0 2.01 0 1.02 0 0 Z " fill="#382427" transform="translate(73,8)"/>
<path d="M0 0 C1.29315061 0.95632999 2.58446853 1.91513851 3.875 2.875 C4.59429687 3.40867187 5.31359375 3.94234375 6.0546875 4.4921875 C8 6 8 6 10 8 C5.38 8 0.76 8 -4 8 C-2.68 7.34 -1.36 6.68 0 6 C0 4.02 0 2.04 0 0 Z " fill="#E6D493" transform="translate(148,90)"/>
<path d="M0 0 C1.30324219 0.14695312 1.30324219 0.14695312 2.6328125 0.296875 C3.49648437 0.38453125 4.36015625 0.4721875 5.25 0.5625 C7.73971352 1.04337925 9.5630985 1.8015024 11.7578125 3.046875 C10.11943905 4.68524845 8.25764672 4.21773421 6.0078125 4.234375 C2.1564794 4.20678665 -0.78206945 3.89227129 -4.2421875 2.046875 C-2.2421875 0.046875 -2.2421875 0.046875 0 0 Z " fill="#4D493A" transform="translate(85.2421875,88.953125)"/>
<path d="M0 0 C1.65 0 3.3 0 5 0 C5 3.3 5 6.6 5 10 C3.68 10.33 2.36 10.66 1 11 C0.67 7.37 0.34 3.74 0 0 Z " fill="#7F7F80" transform="translate(122,188)"/>
<path d="M0 0 C1.60495567 0.11442461 3.20898119 0.24194694 4.8125 0.375 C5.70582031 0.44460937 6.59914062 0.51421875 7.51953125 0.5859375 C10 1 10 1 13 3 C12.01 4.485 12.01 4.485 11 6 C10.67 5.67 10.34 5.34 10 5 C9.01 6.485 9.01 6.485 8 8 C8 6.35 8 4.7 8 3 C6.35 3 4.7 3 3 3 C3 4.65 3 6.3 3 8 C2.67 8 2.34 8 2 8 C1.34 5.36 0.68 2.72 0 0 Z " fill="#1F1F20" transform="translate(163,185)"/>
<path d="M0 0 C1.32 0 2.64 0 4 0 C4 3.3 4 6.6 4 10 C2.68 9.67 1.36 9.34 0 9 C0 6.03 0 3.06 0 0 Z " fill="#392428" transform="translate(114,22)"/>
<path d="M0 0 C0.99 0.66 1.98 1.32 3 2 C2.67 2.33 2.34 2.66 2 3 C1.66659529 5.95804573 1.66659529 5.95804573 2 9 C2.99 9.66 3.98 10.32 5 11 C3.35 11.33 1.7 11.66 0 12 C0 12.66 0 13.32 0 14 C-0.66 13.67 -1.32 13.34 -2 13 C-2 10.03 -2 7.06 -2 4 C-1.34 4 -0.68 4 0 4 C-0.33 3.01 -0.66 2.02 -1 1 C-0.67 0.67 -0.34 0.34 0 0 Z " fill="#242425" transform="translate(81,185)"/>
<path d="M0 0 C0 0.99 0 1.98 0 3 C-4.1795645 5.78637633 -6.14668677 4.79562512 -11 4 C-11 3.34 -11 2.68 -11 2 C-7.12315913 0.80712589 -4.08378077 0 0 0 Z " fill="#161210" transform="translate(129,99)"/>
<path d="M0 0 C2.56687367 3.8503105 1.83288724 5.58569763 1 10 C1.66 10.33 2.32 10.66 3 11 C1.02 11.99 1.02 11.99 -1 13 C-1.66 12.34 -2.32 11.68 -3 11 C-2.64626043 7.0204298 -1.60725491 3.64311114 0 0 Z " fill="#C10B1F" transform="translate(83,22)"/>
<path d="M0 0 C0 0.66 0 1.32 0 2 C-0.99 2.495 -0.99 2.495 -2 3 C-1.01 3.33 -0.02 3.66 1 4 C1.33 3.01 1.66 2.02 2 1 C2.1875 3.375 2.1875 3.375 2 6 C-1 8 -1 8 -3.6875 7.625 C-4.450625 7.41875 -5.21375 7.2125 -6 7 C-5.39816251 4.97954558 -4.72693904 2.97888961 -4 1 C-2 0 -2 0 0 0 Z " fill="#3C3830" transform="translate(150,104)"/>
<path d="M0 0 C0.99 0 1.98 0 3 0 C3 0.66 3 1.32 3 2 C3.66 2 4.32 2 5 2 C5 5.96 5 9.92 5 14 C4.34 14 3.68 14 3 14 C3 10.7 3 7.4 3 4 C1.68 3.67 0.36 3.34 -1 3 C-0.67 2.01 -0.34 1.02 0 0 Z " fill="#DD0614" transform="translate(142,18)"/>
<path d="M0 0 C5.28 0 10.56 0 16 0 C16 0.33 16 0.66 16 1 C10.555 1.495 10.555 1.495 5 2 C5.99 2.99 6.98 3.98 8 5 C5.36 5 2.72 5 0 5 C0 3.35 0 1.7 0 0 Z " fill="#969698" transform="translate(90,213)"/>
<path d="M0 0 C0.66 0.66 1.32 1.32 2 2 C1.34 2 0.68 2 0 2 C0.185625 2.721875 0.37125 3.44375 0.5625 4.1875 C1.01995307 7.12826973 0.73516357 9.14103058 0 12 C-0.33 12 -0.66 12 -1 12 C-1.33 14.97 -1.66 17.94 -2 21 C-2.33 21 -2.66 21 -3 21 C-3.0816082 18.62429457 -3.14077222 16.25144159 -3.1875 13.875 C-3.22520508 12.87726562 -3.22520508 12.87726562 -3.26367188 11.859375 C-3.33320714 7.13097708 -2.40278375 4.04878521 0 0 Z " fill="#362625" transform="translate(157,11)"/>
<path d="M0 0 C1.98 0 3.96 0 6 0 C6.33 1.98 6.66 3.96 7 6 C4.69 6 2.38 6 0 6 C0 4.02 0 2.04 0 0 Z " fill="#A2A2A4" transform="translate(151,188)"/>
<path d="M0 0 C3.71824156 1.23941385 4.67378745 2.9233963 7 6 C7.66 6.66 8.32 7.32 9 8 C8.01 8.33 7.02 8.66 6 9 C5.01 8.34 4.02 7.68 3 7 C2.01 7.33 1.02 7.66 0 8 C0 5.36 0 2.72 0 0 Z " fill="#342425" transform="translate(68,15)"/>
<path d="M0 0 C4.62 0 9.24 0 14 0 C14 0.33 14 0.66 14 1 C9.71 1 5.42 1 1 1 C1 1.99 1 2.98 1 4 C1.66 4 2.32 4 3 4 C3 3.34 3 2.68 3 2 C4.98 2 6.96 2 9 2 C9 2.99 9 3.98 9 5 C8.01 5 7.02 5 6 5 C6 4.34 6 3.68 6 3 C5.34 3 4.68 3 4 3 C4 3.66 4 4.32 4 5 C2.68 5 1.36 5 0 5 C0 3.35 0 1.7 0 0 Z " fill="#A0A0A2" transform="translate(121,213)"/>
<path d="M0 0 C2.38171031 3.80273074 2.65510945 7.89003197 3.125 12.25 C3.21136719 12.99507812 3.29773438 13.74015625 3.38671875 14.5078125 C3.59786867 16.33777846 3.79984545 18.16879879 4 20 C3.01 19.34 2.02 18.68 1 18 C0.70703125 15.6171875 0.70703125 15.6171875 0.8125 12.875 C0.83957031 11.96492187 0.86664063 11.05484375 0.89453125 10.1171875 C0.92933594 9.41851562 0.96414062 8.71984375 1 8 C0.34 8 -0.32 8 -1 8 C-0.67 5.36 -0.34 2.72 0 0 Z " fill="#C9A251" transform="translate(118,136)"/>
<path d="M0 0 C1 2 1 2 1 6 C2.32 6 3.64 6 5 6 C5 6.66 5 7.32 5 8 C3.68 8 2.36 8 1 8 C1 10.97 1 13.94 1 17 C-0.83990753 13.32018493 -1.38598793 11.34701407 -1.75 7.375 C-1.84796875 6.41335937 -1.9459375 5.45171875 -2.046875 4.4609375 C-2 2 -2 2 0 0 Z " fill="#1C2A26" transform="translate(147,35)"/>
<path d="M0 0 C0.33 0.99 0.66 1.98 1 3 C-0.4375 5.1875 -0.4375 5.1875 -2 7 C-2.598125 6.38125 -3.19625 5.7625 -3.8125 5.125 C-6.00811144 2.86323046 -6.00811144 2.86323046 -9 1 C-6.04335481 -0.4783226 -3.25770263 -0.06032783 0 0 Z " fill="#3A3833" transform="translate(155,88)"/>
<path d="M0 0 C-0.33 0.99 -0.66 1.98 -1 3 C-3.97 2.505 -3.97 2.505 -7 2 C-7.33 2.66 -7.66 3.32 -8 4 C-8.66 3.67 -9.32 3.34 -10 3 C-10 2.01 -10 1.02 -10 0 C-6.22996568 -2.61002376 -4.07631429 -1.66758312 0 0 Z " fill="#CB0A1A" transform="translate(121,20)"/>
<path d="M0 0 C4.29 0 8.58 0 13 0 C13 1.32 13 2.64 13 4 C11.35 4 9.7 4 8 4 C8 3.01 8 2.02 8 1 C6.02 1 4.04 1 2 1 C2 1.66 2 2.32 2 3 C1.34 3 0.68 3 0 3 C0 2.01 0 1.02 0 0 Z " fill="#454547" transform="translate(122,214)"/>
<path d="M0 0 C1.98 0.495 1.98 0.495 4 1 C4.05437607 2.58294782 4.09296271 4.16644256 4.125 5.75 C4.14820312 6.63171875 4.17140625 7.5134375 4.1953125 8.421875 C3.99139502 11.1135858 3.36551721 12.69904974 2 15 C0.3584951 11.7169902 1.48111376 8.57454967 2 5 C1.01 4.67 0.02 4.34 -1 4 C-0.67 2.68 -0.34 1.36 0 0 Z " fill="#25190F" transform="translate(107,76)"/>
<path d="M0 0 C0.99 0 1.98 0 3 0 C4.75 2.3125 4.75 2.3125 6 5 C5.67 5.99 5.34 6.98 5 8 C2.00675737 6.9024777 1.15389099 6.32317108 -0.25 3.375 C-0.4975 2.59125 -0.745 1.8075 -1 1 C-0.67 0.67 -0.34 0.34 0 0 Z " fill="#D40918" transform="translate(70,12)"/>
<path d="M0 0 C2.6875 0.3125 2.6875 0.3125 5 1 C5 1.99 5 2.98 5 4 C4.34 4 3.68 4 3 4 C3 6.64 3 9.28 3 12 C2.34 11.67 1.68 11.34 1 11 C1.33 8.36 1.66 5.72 2 3 C0.35 3 -1.3 3 -3 3 C-1.8125 1.4375 -1.8125 1.4375 0 0 Z " fill="#AD0F1D" transform="translate(59,11)"/>
<path d="M0 0 C2.62187494 1.04874998 3.79371361 1.64931313 5.25 4.125 C5.4975 4.74375 5.745 5.3625 6 6 C3 6 3 6 0 5 C0.33 5.99 0.66 6.98 1 8 C0.34 8 -0.32 8 -1 8 C-2.2077558 4.37673261 -1.54311128 3.35853631 0 0 Z " fill="#F0E2AD" transform="translate(113,56)"/>
<path d="M0 0 C0.66 0 1.32 0 2 0 C1.34 1.65 0.68 3.3 0 5 C-0.66 5 -1.32 5 -2 5 C-2 5.99 -2 6.98 -2 8 C-3.98 8.33 -5.96 8.66 -8 9 C-7.1875 7.0625 -7.1875 7.0625 -6 5 C-5.01 4.67 -4.02 4.34 -3 4 C-2.67 3.34 -2.34 2.68 -2 2 C-1.34 2 -0.68 2 0 2 C0 1.34 0 0.68 0 0 Z " fill="#332625" transform="translate(157,30)"/>
<path d="M0 0 C2.31 0 4.62 0 7 0 C7.33 2.31 7.66 4.62 8 7 C5 7 5 7 3.3125 5.625 C2 4 2 4 2 2 C1.34 2 0.68 2 0 2 C0 1.34 0 0.68 0 0 Z " fill="#462026" transform="translate(157,36)"/>
<path d="M0 0 C0 0.99 0 1.98 0 3 C-1.32 3 -2.64 3 -4 3 C-4 5.97 -4 8.94 -4 12 C-4.66 12 -5.32 12 -6 12 C-6 8.04 -6 4.08 -6 0 C-3.50907189 -1.24546405 -2.58919267 -0.7767578 0 0 Z " fill="#CB0919" transform="translate(102,19)"/>
<path d="M0 0 C1.98 0.495 1.98 0.495 4 1 C4 3.64 4 6.28 4 9 C3.67 9 3.34 9 3 9 C3 7.35 3 5.7 3 4 C2.34 4 1.68 4 1 4 C1 5.65 1 7.3 1 9 C0.34 9 -0.32 9 -1 9 C-0.67 6.03 -0.34 3.06 0 0 Z " fill="#9A9A9A" transform="translate(138,185)"/>
<path d="M0 0 C0.66 0 1.32 0 2 0 C2.33 1.98 2.66 3.96 3 6 C2.34 6 1.68 6 1 6 C1.33 9.3 1.66 12.6 2 16 C1.67 15.01 1.34 14.02 1 13 C0.34 13 -0.32 13 -1 13 C-0.67 8.71 -0.34 4.42 0 0 Z " fill="#302E39" transform="translate(125,144)"/>
<path d="M0 0 C4.95 0 9.9 0 15 0 C15 0.33 15 0.66 15 1 C13.35 1.33 11.7 1.66 10 2 C10 2.33 10 2.66 10 3 C6.37 2.67 2.74 2.34 -1 2 C-0.67 1.34 -0.34 0.68 0 0 Z " fill="#1F150C" transform="translate(66,98)"/>
<path d="M0 0 C0.99 0 1.98 0 3 0 C3.80967438 2.91482778 4.21845993 4.46113217 3.0625 7.3125 C2.5365625 8.1478125 2.5365625 8.1478125 2 9 C0.68 7.35 -0.64 5.7 -2 4 C-1.34 4 -0.68 4 0 4 C0 2.68 0 1.36 0 0 Z " fill="#392C19" transform="translate(106,81)"/>
<path d="M0 0 C1.98 0.99 1.98 0.99 4 2 C4 3.98 4 5.96 4 8 C2.68 8 1.36 8 0 8 C0 5.36 0 2.72 0 0 Z " fill="#B7B7B8" transform="translate(109,186)"/>
<path d="M0 0 C3.96 0 7.92 0 12 0 C10.02 0.99 10.02 0.99 8 2 C7.01 3.485 7.01 3.485 6 5 C5.34 5 4.68 5 4 5 C4 4.34 4 3.68 4 3 C3.01 2.67 2.02 2.34 1 2 C0.67 1.34 0.34 0.68 0 0 Z " fill="#38311E" transform="translate(74,99)"/>
<path d="M0 0 C0 0.99 0 1.98 0 3 C-4.76307437 3.95261487 -9.1666528 4.08333357 -14 4 C-13.67 3.01 -13.34 2.02 -13 1 C-12.31292969 1.01160156 -11.62585938 1.02320312 -10.91796875 1.03515625 C-10.01691406 1.04417969 -9.11585937 1.05320312 -8.1875 1.0625 C-6.84751953 1.07990234 -6.84751953 1.07990234 -5.48046875 1.09765625 C-2.86586209 1.11009967 -2.86586209 1.11009967 0 0 Z " fill="#F8F3C1" transform="translate(96,95)"/>
<path d="M0 0 C1.4783226 2.95664519 1.06032783 5.74229737 1 9 C-0.65 9 -2.3 9 -4 9 C-4 8.34 -4 7.68 -4 7 C-3.01 7 -2.02 7 -1 7 C-1 5.68 -1 4.36 -1 3 C-1.66 3.99 -2.32 4.98 -3 6 C-3.33 4.68 -3.66 3.36 -4 2 C-2.68 1.34 -1.36 0.68 0 0 Z " fill="#A71024" transform="translate(169,42)"/>
<path d="M0 0 C0.66 0 1.32 0 2 0 C1.67 4.62 1.34 9.24 1 14 C0.34 14 -0.32 14 -1 14 C-1.02694851 12.04174127 -1.04637218 10.08337774 -1.0625 8.125 C-1.07410156 7.03445312 -1.08570312 5.94390625 -1.09765625 4.8203125 C-1 2 -1 2 0 0 Z " fill="#23242B" transform="translate(109,18)"/>
<path d="M0 0 C1.32 0.33 2.64 0.66 4 1 C3.34 1 2.68 1 2 1 C2.33 3.31 2.66 5.62 3 8 C1.35 8 -0.3 8 -2 8 C-1.34 5.36 -0.68 2.72 0 0 Z " fill="#777778" transform="translate(77,188)"/>
<path d="M0 0 C0.66 0 1.32 0 2 0 C2 0.66 2 1.32 2 2 C3.98 2 5.96 2 8 2 C4.79989612 3.8133922 1.86716157 4.52213974 -1.75 5.125 C-2.73484375 5.29257813 -3.7196875 5.46015625 -4.734375 5.6328125 C-5.48203125 5.75398438 -6.2296875 5.87515625 -7 6 C-7 5.34 -7 4.68 -7 4 C-3.535 3.505 -3.535 3.505 0 3 C0 2.01 0 1.02 0 0 Z " fill="#EDEABD" transform="translate(126,95)"/>
<path d="M0 0 C0.99 0.33 1.98 0.66 3 1 C3 2.32 3 3.64 3 5 C5.97 5.33 8.94 5.66 12 6 C12 6.33 12 6.66 12 7 C10.41705218 7.05437607 8.83355744 7.09296271 7.25 7.125 C6.36828125 7.14820312 5.4865625 7.17140625 4.578125 7.1953125 C1.8864142 6.99139502 0.30095026 6.36551721 -2 5 C-1.34 4.67 -0.68 4.34 0 4 C0 2.68 0 1.36 0 0 Z " fill="#5B5643" transform="translate(125,86)"/>
<path d="M0 0 C0.66 0 1.32 0 2 0 C2.5625 1.9375 2.5625 1.9375 3 4 C2.67 4.33 2.34 4.66 2 5 C2.99 5.66 3.98 6.32 5 7 C5 7.66 5 8.32 5 9 C3.68 9 2.36 9 1 9 C-0.61949011 6.42786866 -1.04408751 5.32330841 -0.625 2.25 C-0.41875 1.5075 -0.2125 0.765 0 0 Z " fill="#959596" transform="translate(106,205)"/>
<path d="M0 0 C-5.5 5 -5.5 5 -10 5 C-10 4.34 -10 3.68 -10 3 C-9.34 3 -8.68 3 -8 3 C-8 2.34 -8 1.68 -8 1 C-4.93251126 -0.86240388 -3.40254489 -1.2151946 0 0 Z " fill="#C49C41" transform="translate(157,99)"/>
<path d="M0 0 C2.31 0 4.62 0 7 0 C6.3125 1.9375 6.3125 1.9375 5 4 C2.375 4.75 2.375 4.75 0 5 C0 3.35 0 1.7 0 0 Z " fill="#701D1F" transform="translate(160,21)"/>
<path d="M0 0 C0.33 0 0.66 0 1 0 C1 1.65 1 3.3 1 5 C1.66 5 2.32 5 3 5 C3 3.35 3 1.7 3 0 C3.33 0 3.66 0 4 0 C4 1.98 4 3.96 4 6 C3.34 6 2.68 6 2 6 C1.34 7.32 0.68 8.64 0 10 C-0.66 8.35 -1.32 6.7 -2 5 C-1.34 5 -0.68 5 0 5 C-0.2784375 4.0409375 -0.2784375 4.0409375 -0.5625 3.0625 C-0.7790625 2.0415625 -0.7790625 2.0415625 -1 1 C-0.67 0.67 -0.34 0.34 0 0 Z " fill="#1C1C1E" transform="translate(159,189)"/>
<path d="M0 0 C3 6 3 6 4 9 C2.68 10.32 1.36 11.64 0 13 C0 8.71 0 4.42 0 0 Z " fill="#C59733" transform="translate(113,160)"/>
<path d="M0 0 C0.99 0.33 1.98 0.66 3 1 C3 1.99 3 2.98 3 4 C3.33 4.639375 3.66 5.27875 4 5.9375 C5 8 5 8 5 12 C2.17825529 10.58912765 2.06230199 8.92133047 1 6 C0.62875 5.071875 0.2575 4.14375 -0.125 3.1875 C-0.41375 2.465625 -0.7025 1.74375 -1 1 C-0.67 0.67 -0.34 0.34 0 0 Z " fill="#1F160D" transform="translate(101,73)"/>
<path d="M0 0 C1.65 0 3.3 0 5 0 C5.66 1.98 6.32 3.96 7 6 C6.34 6 5.68 6 5 6 C5 4.68 5 3.36 5 2 C4.01 2.495 4.01 2.495 3 3 C3 3.99 3 4.98 3 6 C2.01 6 1.02 6 0 6 C0 4.02 0 2.04 0 0 Z " fill="#CFCFD0" transform="translate(82,188)"/>
<path d="M0 0 C0 0.66 0 1.32 0 2 C-0.99 2.495 -0.99 2.495 -2 3 C-2 3.66 -2 4.32 -2 5 C-3.98 5.33 -5.96 5.66 -8 6 C-6.53781513 1.3697479 -6.53781513 1.3697479 -4 -0.375 C-2 -1 -2 -1 0 0 Z " fill="#DAC885" transform="translate(124,90)"/>
<path d="M0 0 C1.32 1.65 2.64 3.3 4 5 C1.36 5.33 -1.28 5.66 -4 6 C-2.25 1.125 -2.25 1.125 0 0 Z " fill="#DFD5AB" transform="translate(103,84)"/>
<path d="M0 0 C0.33 0.66 0.66 1.32 1 2 C0.67 2.66 0.34 3.32 0 4 C-0.66 4 -1.32 4 -2 4 C-2 4.66 -2 5.32 -2 6 C-1.34 6 -0.68 6 0 6 C0 6.66 0 7.32 0 8 C-2.88437779 6.70700306 -4.87219421 5.34058637 -7 3 C-6.67 2.34 -6.34 1.68 -6 1 C-5.01 1.33 -4.02 1.66 -3 2 C-2.01 1.34 -1.02 0.68 0 0 Z " fill="#1E2B24" transform="translate(143,32)"/>
<path d="M0 0 C0.66 0 1.32 0 2 0 C2 2.97 2 5.94 2 9 C2.66 9.33 3.32 9.66 4 10 C2.68 10.33 1.36 10.66 0 11 C0 7.37 0 3.74 0 0 Z " fill="#E60710" transform="translate(132,23)"/>
<path d="M0 0 C1.32 0 2.64 0 4 0 C4 1.98 4 3.96 4 6 C2.68 6 1.36 6 0 6 C0 4.02 0 2.04 0 0 Z " fill="#BCBCBD" transform="translate(66,188)"/>
<path d="M0 0 C1.32 0 2.64 0 4 0 C4 1.98 4 3.96 4 6 C2.68 6 1.36 6 0 6 C0 4.02 0 2.04 0 0 Z " fill="#B4B4B4" transform="translate(129,188)"/>
<path d="M0 0 C2.125 0.9375 2.125 0.9375 4 2 C3.67 2.99 3.34 3.98 3 5 C1.02 5 -0.96 5 -3 5 C-2.625 3.0625 -2.625 3.0625 -2 1 C-1.34 0.67 -0.68 0.34 0 0 Z " fill="#140E0A" transform="translate(108,155)"/>
<path d="M0 0 C2.97 0 5.94 0 9 0 C5.57653445 3.14958831 2.55737263 3.56179109 -2 4 C-1.34 3.67 -0.68 3.34 0 3 C0 2.01 0 1.02 0 0 Z " fill="#060405" transform="translate(129,99)"/>
<path d="M0 0 C1.32 0 2.64 0 4 0 C3.25 4.75 3.25 4.75 1 7 C-2.625 7.125 -2.625 7.125 -6 7 C-6 6.67 -6 6.34 -6 6 C-4.02 5.67 -2.04 5.34 0 5 C0 3.35 0 1.7 0 0 Z " fill="#E3D9AC" transform="translate(96,92)"/>
<path d="M0 0 C6.625 -0.25 6.625 -0.25 10 2 C10 2.99 10 3.98 10 5 C8.35 5 6.7 5 5 5 C5.33 4.34 5.66 3.68 6 3 C4.02 2.34 2.04 1.68 0 1 C0 0.67 0 0.34 0 0 Z " fill="#9E9E9E" transform="translate(110,209)"/>
<path d="M0 0 C4 1 4 1 6 2 C6 3.65 6 5.3 6 7 C5.34 6.67 4.68 6.34 4 6 C3.34 6.66 2.68 7.32 2 8 C1.34 5.36 0.68 2.72 0 0 Z " fill="#1C1C1D" transform="translate(131,186)"/>
<path d="M0 0 C0.33 0 0.66 0 1 0 C1.12375 0.804375 1.2475 1.60875 1.375 2.4375 C1.58125 3.283125 1.7875 4.12875 2 5 C2.66 5.33 3.32 5.66 4 6 C3.67 7.65 3.34 9.3 3 11 C2.01 10.34 1.02 9.68 0 9 C-0.29296875 6.8359375 -0.29296875 6.8359375 -0.1875 4.375 C-0.16042969 3.55773437 -0.13335937 2.74046875 -0.10546875 1.8984375 C-0.05326172 0.95871094 -0.05326172 0.95871094 0 0 Z " fill="#E2E0AB" transform="translate(110,147)"/>
<path d="M0 0 C0.99 0 1.98 0 3 0 C3 1.98 3 3.96 3 6 C1.35 5.67 -0.3 5.34 -2 5 C-1.34 3.35 -0.68 1.7 0 0 Z M-2 6 C-1.34 6 -0.68 6 0 6 C-0.33 6.66 -0.66 7.32 -1 8 C-1.33 7.34 -1.66 6.68 -2 6 Z " fill="#22211F" transform="translate(98,72)"/>
<path d="M0 0 C0.33 0 0.66 0 1 0 C0.938125 0.78375 0.87625 1.5675 0.8125 2.375 C0.874375 3.24125 0.93625 4.1075 1 5 C1.99 5.66 2.98 6.32 4 7 C-0.455 7.495 -0.455 7.495 -5 8 C-3 4 -3 4 -1 3 C-0.67 2.01 -0.34 1.02 0 0 Z " fill="#B1101F" transform="translate(61,27)"/>
<path d="M0 0 C0.33 0 0.66 0 1 0 C1 4.29 1 8.58 1 13 C0.01 12.67 -0.98 12.34 -2 12 C-2 11.34 -2 10.68 -2 10 C-1.34 10 -0.68 10 0 10 C0 8.35 0 6.7 0 5 C-0.66 5 -1.32 5 -2 5 C-2.33 4.01 -2.66 3.02 -3 2 C-2.34 2 -1.68 2 -1 2 C-0.67 1.34 -0.34 0.68 0 0 Z " fill="#541F29" transform="translate(103,20)"/>
<path d="M0 0 C0.66 0.33 1.32 0.66 2 1 C2 3.64 2 6.28 2 9 C1.34 9 0.68 9 0 9 C-0.66 6.69 -1.32 4.38 -2 2 C-1.34 1.34 -0.68 0.68 0 0 Z " fill="#2A2627" transform="translate(78,23)"/>
<path d="M0 0 C2.31 0.33 4.62 0.66 7 1 C7 1.99 7 2.98 7 4 C4.69 4 2.38 4 0 4 C0 2.68 0 1.36 0 0 Z " fill="#727273" transform="translate(113,214)"/>
<path d="M0 0 C0.33 0.66 0.66 1.32 1 2 C3.01669827 3.13350534 3.01669827 3.13350534 5 4 C3.02 4.66 1.04 5.32 -1 6 C-1.66 5.01 -2.32 4.02 -3 3 C-2.01 2.67 -1.02 2.34 0 2 C0 1.34 0 0.68 0 0 Z " fill="#222224" transform="translate(115,194)"/>
<path d="M0 0 C1.32 0.33 2.64 0.66 4 1 C3.67 2.65 3.34 4.3 3 6 C2.01 6 1.02 6 0 6 C0 4.02 0 2.04 0 0 Z " fill="#292721" transform="translate(68,25)"/>
<path d="M0 0 C0.66 0.33 1.32 0.66 2 1 C2 3.97 2 6.94 2 10 C1.01 10.495 1.01 10.495 0 11 C-0.19491452 9.54263913 -0.38069358 8.08405407 -0.5625 6.625 C-0.66691406 5.81289063 -0.77132812 5.00078125 -0.87890625 4.1640625 C-1 2 -1 2 0 0 Z " fill="#DC0813" transform="translate(88,23)"/>
<path d="M0 0 C0.33 0 0.66 0 1 0 C1 1.65 1 3.3 1 5 C2.65 5 4.3 5 6 5 C5.67 6.65 5.34 8.3 5 10 C4.34 10 3.68 10 3 10 C2.34 9.01 1.68 8.02 1 7 C0.67 6.67 0.34 6.34 0 6 C-0.04080783 4.00041636 -0.04254356 1.99954746 0 0 Z " fill="#1E1E20" transform="translate(146,189)"/>
<path d="M0 0 C1.32 0 2.64 0 4 0 C3.67 1.98 3.34 3.96 3 6 C2.01 6 1.02 6 0 6 C-0.38218767 4.34385343 -0.71395102 2.67542976 -1 1 C-0.67 0.67 -0.34 0.34 0 0 Z " fill="#C0C0C2" transform="translate(98,188)"/>
<path d="M0 0 C0 2.64 0 5.28 0 8 C-0.66 7.67 -1.32 7.34 -2 7 C-2 5.35 -2 3.7 -2 2 C-2.99 2.33 -3.98 2.66 -5 3 C-5.66 2.34 -6.32 1.68 -7 1 C-4.53721199 -0.231394 -2.7204945 -0.07159196 0 0 Z " fill="#3D3D3F" transform="translate(159,186)"/>
<path d="M0 0 C0.33 0 0.66 0 1 0 C1.061875 0.78375 1.12375 1.5675 1.1875 2.375 C1.455625 3.24125 1.72375 4.1075 2 5 C4.47636012 6.37466625 4.47636012 6.37466625 7 7 C7 7.33 7 7.66 7 8 C4.125 8.125 4.125 8.125 1 8 C0.34 7.34 -0.32 6.68 -1 6 C-0.625 2.875 -0.625 2.875 0 0 Z " fill="#AE8A45" transform="translate(109,94)"/>
<path d="M0 0 C0.99 0 1.98 0 3 0 C5 3 5 3 5 6 C2.525 5.01 2.525 5.01 0 4 C0 2.68 0 1.36 0 0 Z " fill="#3C332B" transform="translate(110,95)"/>
<path d="M0 0 C-1.45255699 3.82946843 -3.42895561 5.12050295 -7 7 C-7 5.35 -7 3.7 -7 2 C-2.25 0 -2.25 0 0 0 Z " fill="#393228" transform="translate(76,89)"/>
<path d="M0 0 C1.32 0 2.64 0 4 0 C3.67 1.32 3.34 2.64 3 4 C2.34 4 1.68 4 1 4 C1 5.98 1 7.96 1 10 C0.67 10 0.34 10 0 10 C0 6.7 0 3.4 0 0 Z " fill="#162727" transform="translate(135,22)"/>
<path d="M0 0 C0 2.97 0 5.94 0 9 C-0.66 8.67 -1.32 8.34 -2 8 C-2.40729228 5.67843403 -2.74438677 3.3431213 -3 1 C-1 0 -1 0 0 0 Z " fill="#EA0614" transform="translate(65,14)"/>
<path d="M0 0 C2.64 0.66 5.28 1.32 8 2 C8 2.66 8 3.32 8 4 C5.36 4 2.72 4 0 4 C0 2.68 0 1.36 0 0 Z " fill="#1F2320" transform="translate(64,99)"/>
<path d="M0 0 C0 0.33 0 0.66 0 1 C-3.63 1 -7.26 1 -11 1 C-7.14260851 -2.85739149 -4.71895155 -1.78271503 0 0 Z " fill="#C29421" transform="translate(80,96)"/>
<path d="M0 0 C2.64 0 5.28 0 8 0 C7.67 0.99 7.34 1.98 7 3 C4.69 3 2.38 3 0 3 C0 2.01 0 1.02 0 0 Z " fill="#DCBE6B" transform="translate(115,73)"/>
<path d="M0 0 C2.97 0.495 2.97 0.495 6 1 C5.01 2.485 5.01 2.485 4 4 C2.35 3.67 0.7 3.34 -1 3 C-0.67 2.01 -0.34 1.02 0 0 Z " fill="#CE091C" transform="translate(66,31)"/>
<path d="M0 0 C-0.99 0.33 -1.98 0.66 -3 1 C-3 1.66 -3 2.32 -3 3 C-5.97 2.505 -5.97 2.505 -9 2 C-9 1.34 -9 0.68 -9 0 C-5.52176885 -1.15941038 -3.54104422 -0.70820884 0 0 Z " fill="#BA0F1F" transform="translate(91,19)"/>
<path d="M0 0 C1.98 0 3.96 0 6 0 C6.33 0.99 6.66 1.98 7 3 C4.36 3 1.72 3 -1 3 C-0.67 2.01 -0.34 1.02 0 0 Z " fill="#6C6C6E" transform="translate(105,215)"/>
<path d="M0 0 C-0.375 1.9375 -0.375 1.9375 -1 4 C-1.99 4.495 -1.99 4.495 -3 5 C-3 4.01 -3 3.02 -3 2 C-5.97 1.505 -5.97 1.505 -9 1 C-9 0.67 -9 0.34 -9 0 C-3.375 -1.125 -3.375 -1.125 0 0 Z " fill="#A2A2A2" transform="translate(65,189)"/>
<path d="M0 0 C2 1.8125 2 1.8125 4 4 C4 4.99 4 5.98 4 7 C2.68 6.67 1.36 6.34 0 6 C0 5.34 0 4.68 0 4 C-0.33 3.34 -0.66 2.68 -1 2 C-0.67 1.34 -0.34 0.68 0 0 Z " fill="#3B372E" transform="translate(156,93)"/>
<path d="M0 0 C0.33 0.66 0.66 1.32 1 2 C1.66 2.33 2.32 2.66 3 3 C2.01 4.32 1.02 5.64 0 7 C-0.99 6.34 -1.98 5.68 -3 5 C-3 4.34 -3 3.68 -3 3 C-2.34 3 -1.68 3 -1 3 C-0.67 2.01 -0.34 1.02 0 0 Z " fill="#382228" transform="translate(144,33)"/>
<path d="M0 0 C1.32 0.33 2.64 0.66 4 1 C4 2.32 4 3.64 4 5 C3.01 5.33 2.02 5.66 1 6 C0 5 0 5 -0.0625 2.4375 C-0.041875 1.633125 -0.02125 0.82875 0 0 Z " fill="#212622" transform="translate(140,26)"/>
<path d="M0 0 C1.3271261 3.9813783 1.06915913 7.85045227 1 12 C0.67 12 0.34 12 0 12 C-0.38897161 10.37828761 -0.76078298 8.75245075 -1.125 7.125 C-1.43824219 5.76761719 -1.43824219 5.76761719 -1.7578125 4.3828125 C-1.83773437 3.59648437 -1.91765625 2.81015625 -2 2 C-1.34 1.34 -0.68 0.68 0 0 Z " fill="#462427" transform="translate(168,20)"/>
<path d="M0 0 C2.875 -0.125 2.875 -0.125 6 0 C6.66 0.66 7.32 1.32 8 2 C7.01 3.485 7.01 3.485 6 5 C5.67 4.34 5.34 3.68 5 3 C4.01 3 3.02 3 2 3 C1.34 2.67 0.68 2.34 0 2 C0 1.34 0 0.68 0 0 Z " fill="#1B2D24" transform="translate(131,16)"/>
<path d="M0 0 C1.98 0 3.96 0 6 0 C5.67 1.65 5.34 3.3 5 5 C3.68 4.67 2.36 4.34 1 4 C0.67 2.68 0.34 1.36 0 0 Z " fill="#222224" transform="translate(127,194)"/>
<path d="M0 0 C1.98 0.99 1.98 0.99 4 2 C4 3.65 4 5.3 4 7 C3.34 7 2.68 7 2 7 C1.67 7.66 1.34 8.32 1 9 C1.020625 8.071875 1.04125 7.14375 1.0625 6.1875 C1.15769604 2.97713989 1.15769604 2.97713989 0 0 Z " fill="#413727" transform="translate(118,105)"/>
<path d="M0 0 C1.9375 0.3125 1.9375 0.3125 4 1 C4.33 1.99 4.66 2.98 5 4 C2.36 4 -0.28 4 -3 4 C-1.68 3.67 -0.36 3.34 1 3 C0.67 2.01 0.34 1.02 0 0 Z " fill="#F9F0C1" transform="translate(139,95)"/>
<path d="M0 0 C1.32 0 2.64 0 4 0 C4.66 1.65 5.32 3.3 6 5 C5.01 5.33 4.02 5.66 3 6 C3 5.34 3 4.68 3 4 C2.01 3.67 1.02 3.34 0 3 C0 2.01 0 1.02 0 0 Z " fill="#E9E4AB" transform="translate(104,97)"/>
<path d="M0 0 C0.91007812 0.10183594 1.82015625 0.20367187 2.7578125 0.30859375 C3.45648438 0.39238281 4.15515625 0.47617188 4.875 0.5625 C4.875 0.8925 4.875 1.2225 4.875 1.5625 C3.25175914 1.78412329 1.626279 1.98939803 0 2.1875 C-1.35738281 2.36152344 -1.35738281 2.36152344 -2.7421875 2.5390625 C-3.52851562 2.54679687 -4.31484375 2.55453125 -5.125 2.5625 C-5.785 1.9025 -6.445 1.2425 -7.125 0.5625 C-4.50184968 -0.74907516 -2.89466564 -0.33399988 0 0 Z " fill="#3E3A3D" transform="translate(88.125,89.4375)"/>
<path d="M0 0 C0.99 0 1.98 0 3 0 C3 0.66 3 1.32 3 2 C2.34 2 1.68 2 1 2 C1.33 3.65 1.66 5.3 2 7 C1.01 7 0.02 7 -1 7 C-1.04254356 5.00045254 -1.04080783 2.99958364 -1 1 C-0.67 0.67 -0.34 0.34 0 0 Z " fill="#AB1022" transform="translate(159,43)"/>
<path d="M0 0 C2.97 0.33 5.94 0.66 9 1 C9 1.66 9 2.32 9 3 C8.34 3.66 7.68 4.32 7 5 C6.01 5 5.02 5 4 5 C3.896875 4.360625 3.79375 3.72125 3.6875 3.0625 C3.460625 2.381875 3.23375 1.70125 3 1 C2.01 0.67 1.02 0.34 0 0 Z " fill="#342424" transform="translate(92,33)"/>
<path d="M0 0 C0.66 0.66 1.32 1.32 2 2 C1.625 4.125 1.625 4.125 1 6 C0.34 5.34 -0.32 4.68 -1 4 C-1.33 4.66 -1.66 5.32 -2 6 C-2.66 5.67 -3.32 5.34 -4 5 C-2.68 3.35 -1.36 1.7 0 0 Z " fill="#37301C" transform="translate(118,167)"/>
<path d="M0 0 C0.33 0.99 0.66 1.98 1 3 C-0.65 3.66 -2.3 4.32 -4 5 C-4 3.68 -4 2.36 -4 1 C-2 0 -2 0 0 0 Z " fill="#DCD2A3" transform="translate(103,104)"/>
<path d="M0 0 C0.33 0.99 0.66 1.98 1 3 C-2.3 3 -5.6 3 -9 3 C-3 0 -3 0 0 0 Z " fill="#DCCEA5" transform="translate(146,90)"/>
<path d="M0 0 C0.33 0 0.66 0 1 0 C1 2.64 1 5.28 1 8 C-0.65 8.66 -2.3 9.32 -4 10 C-3.67 9.01 -3.34 8.02 -3 7 C-2.01 7 -1.02 7 0 7 C0 4.69 0 2.38 0 0 Z " fill="#F5F1BB" transform="translate(113,84)"/>
<path d="M0 0 C0.99 0.66 1.98 1.32 3 2 C2.67 3.32 2.34 4.64 2 6 C0.68 5.01 -0.64 4.02 -2 3 C-1.34 2.01 -0.68 1.02 0 0 Z " fill="#DA0617" transform="translate(71,21)"/>
<path d="M0 0 C0.33 0 0.66 0 1 0 C1 2.64 1 5.28 1 8 C-0.32 7.67 -1.64 7.34 -3 7 C-2.690625 6.401875 -2.38125 5.80375 -2.0625 5.1875 C-0.89790296 2.91043228 -0.89790296 2.91043228 0 0 Z " fill="#3D251F" transform="translate(60,14)"/>
</svg>
